<?xml version="1.0" encoding="UTF-8" standalone="no"?>
<!DOCTYPE svg PUBLIC "-//W3C//DTD SVG 1.1//EN" "http://www.w3.org/Graphics/SVG/1.1/DTD/svg11.dtd">
<!-- Created with Vectornator (http://vectornator.io/) -->
<svg height="100%" stroke-miterlimit="10" style="fill-rule:nonzero;clip-rule:evenodd;stroke-linecap:round;stroke-linejoin:round;" version="1.1" viewBox="0 0 872.335 172.708" width="100%" xml:space="preserve" xmlns="http://www.w3.org/2000/svg" xmlns:vectornator="http://vectornator.io" xmlns:xlink="http://www.w3.org/1999/xlink">
<defs>
<filter color-interpolation-filters="sRGB" filterUnits="userSpaceOnUse" height="179.731" id="Filter" width="242.377" x="631.158" y="0.89427">
<feComponentTransfer in="SourceGraphic" result="Alpha">
<feFuncA slope="0.49754" type="linear"/>
</feComponentTransfer>
<feDropShadow dx="8.46757" dy="4.88876" flood-color="#4d69e6" flood-opacity="1" in="Alpha" result="Shadow" stdDeviation="4.89"/>
</filter>
<filter color-interpolation-filters="sRGB" filterUnits="userSpaceOnUse" height="130.45" id="Filter_2" width="202.85" x="650.987" y="31.4191">
<feComponentTransfer in="SourceGraphic" result="Alpha">
<feFuncA slope="0.501595" type="linear"/>
</feComponentTransfer>
<feDropShadow dx="8.46757" dy="4.88876" flood-color="#4d69e6" flood-opacity="1" in="Alpha" result="Shadow" stdDeviation="4.89"/>
</filter>
<filter color-interpolation-filters="sRGB" filterUnits="userSpaceOnUse" height="148.65" id="Filter_3" width="602.65" x="15.4686" y="13.5417">
<feComponentTransfer in="SourceGraphic" result="Alpha">
<feFuncA slope="0.499" type="linear"/>
</feComponentTransfer>
<feDropShadow dx="8.46757" dy="4.88876" flood-color="#4d69e6" flood-opacity="1" in="Alpha" result="Shadow" stdDeviation="4.89"/>
</filter>
</defs>
<clipPath id="ArtboardFrame">
<rect height="172.708" width="872.335" x="0" y="0"/>
</clipPath>
<g clip-path="url(#ArtboardFrame)" id="Layer-1" vectornator:layerName="Layer 1">
<path d="M638.415 29.7706C638.415 19.8073 644.069 11.7305 651.044 11.7305L836.713 11.7305C843.688 11.7305 849.342 19.8073 849.342 29.7706L849.342 141.971C849.342 151.935 843.688 160.011 836.713 160.011L651.044 160.011C644.069 160.011 638.415 151.935 638.415 141.971L638.415 29.7706Z" fill="#d6dee9" fill-rule="nonzero" filter="url(#Filter)" stroke="#131313" stroke-linecap="butt" stroke-linejoin="round" stroke-width="7" vectornator:layerName="Rectangle 1" vectornator:shadowAngle="0.523599" vectornator:shadowColor="#4d69e6" vectornator:shadowOffset="9.77751" vectornator:shadowOpacity="1" vectornator:shadowRadius="9.78"/>
<g opacity="0" vectornator:layerName="g">
<path d="M765.538 313.994C765.554 312.293 764.909 308.905 764.334 307.519C762.576 303.073 757.501 298.039 750.947 294.108C747.178 291.89 746.677 291.673 739.422 289.693C732.908 287.875 731.312 287.558 727.718 287.37C720.802 287.028 714.135 287.825 713.812 289.006C713.732 289.301 714.247 289.878 714.927 290.262C717.44 291.741 722.333 296.21 724.576 299.083C730.223 306.335 730.235 314.508 724.514 319.647C719.371 324.311 718.846 325 717.758 328.986C716.771 332.603 716.783 332.765 717.975 334.558C721.344 339.681 730.912 340.786 740.26 337.152C747.97 334.181 757.363 327.506 762.172 321.601C763.84 319.598 765.513 315.732 765.538 313.994Z" fill="#d6dee9" fill-rule="nonzero" opacity="1" stroke="#4d69e6" stroke-linecap="butt" stroke-linejoin="round" stroke-width="5" vectornator:layerName="path"/>
<path d="M712.773 345.193C709.446 342.381 706.402 338.536 705.389 335.88C703.735 331.463 703.839 329.231 706.188 319.601C708.75 309.395 708.786 307.62 706.899 294.812C705.831 287.223 702.479 279.368 697.715 272.992C695.333 269.803 689.631 264.598 685.799 262.204C679.055 257.943 677.037 257.115 665.337 253.96C655.681 251.324 653.825 250.936 649.709 250.605C638.955 249.731 627.368 249.859 626.429 250.832C626.172 251.158 627.161 252.261 629.522 254.294C635.336 259.292 638.142 262.16 642.406 267.289C650.786 277.469 655.685 288.284 656.644 298.738C657.544 308.382 657.305 312.957 655.539 320.247C654.434 324.704 653.931 327.779 654.157 328.594C654.351 329.321 654.484 331.301 654.458 333.038C654.321 337.443 654.686 339.803 655.853 343.333C659.435 353.631 666.355 361.151 674.919 364.084C680.967 366.172 690.058 366.354 695.935 364.548C699.06 363.577 703.846 360.839 706.645 358.391C707.596 357.58 708.639 356.635 708.938 356.36C710.251 355.251 715.349 349.108 715.54 348.407C715.671 347.927 714.777 346.89 712.773 345.193Z" fill="#d6dee9" fill-rule="nonzero" opacity="1" stroke="#4d69e6" stroke-linecap="butt" stroke-linejoin="round" stroke-width="5" vectornator:layerName="path"/>
<path d="M673.974 373.502C673.762 373.048 671.954 372.277 668.298 371.08C665.426 370.098 661.894 368.657 660.481 367.875C649.251 361.557 642.461 351.098 639.645 335.736C639.449 334.81 638.704 330.76 637.897 326.732C637.09 322.705 636.399 318.868 636.309 318.169C636.209 317.508 635.331 312.509 634.334 307.121C633.286 301.719 632.427 296.647 632.358 295.874C632.006 292.645 631.57 290.544 629.634 282.639C624.747 262.746 613.722 245.816 599.528 236.389C591.179 230.818 581.858 227.163 571.533 225.335C558.247 223.056 537.963 225.251 530.04 229.829C528.497 230.756 528.302 231.06 528.693 231.682C528.977 232.077 529.429 232.478 529.69 232.549C530.264 232.706 535.695 236.846 539.85 240.32C556.102 253.918 568.839 273.615 574.701 294.25C575.401 296.821 576.122 299.318 576.272 299.795C577.27 303.121 577.682 304.899 577.602 305.194C577.541 305.416 577.673 306.165 577.919 306.907C578.928 310.196 579.532 312.502 579.441 312.835C579.381 313.056 579.565 313.82 579.811 314.561C580.047 315.34 580.403 316.706 580.547 317.618C580.743 318.544 581.308 321.196 581.85 323.525C582.34 325.84 582.885 328.567 582.999 329.589C583.164 330.626 583.344 332.023 583.443 332.685C583.585 333.398 583.842 335.332 584.056 337.016C584.82 343.252 586.262 351.736 587.192 355.519C588.855 362.16 588.941 362.461 590.793 368.003C597.698 388.725 611.107 402.26 628.046 405.537C636.672 407.218 646.242 405.032 655.374 399.316C662.88 394.624 668.439 388.845 671.351 382.7C673.057 379.121 674.409 374.375 673.974 373.502Z" fill="#d6dee9" fill-rule="nonzero" opacity="1" stroke="#4d69e6" stroke-linecap="butt" stroke-linejoin="round" stroke-width="5" vectornator:layerName="path"/>
<path d="M612.445 415.434C612.078 415.136 610.324 414.578 608.144 414.141C603.053 413.068 597.684 411.166 594.971 409.394C589.818 406.084 583.853 399.379 579.612 392.114C577.084 387.815 574.911 382.424 571.836 372.939C570.967 370.164 566.291 354.016 565.709 351.835C564.423 346.685 563.499 342.468 563.6 342.098C563.661 341.877 563.539 341.09 563.293 340.349C563.057 339.571 562.346 337.037 561.7 334.679C561.106 332.336 560.438 329.854 560.192 329.112C559.537 326.99 558.727 323.795 557.709 319.512C557.19 317.308 556.488 314.539 556.196 313.348C555.57 310.917 545.89 283.926 543.803 278.835C540.033 269.636 537.797 265.298 533.037 258.288C525.481 247.144 513.452 236.563 500.594 229.84C494.369 226.554 490.899 225.091 483.065 222.358C475.951 219.86 474.333 219.418 466.886 217.94C455.453 215.652 446.991 214.808 437.903 215.024C428.743 215.299 424.262 216.098 416.957 218.823C406.58 222.731 396.141 225.433 382.314 227.804L374.309 229.188L373.679 230.88C372.642 233.65 372.737 233.716 388.968 238.147C406.608 242.963 414.904 246.061 426.622 252.235C431.131 254.616 434.197 256.325 435.277 257.096C435.696 257.409 437.163 258.404 438.451 259.232C451.135 267.414 464.881 281.358 473.195 294.454C481.805 308.107 485.092 315.786 490.961 335.987C492.8 342.398 494.519 348.221 494.723 348.911C494.969 349.653 495.638 352.135 496.284 354.493C496.93 356.85 497.588 359.37 497.844 360.074C498.038 360.801 498.632 363.144 499.162 365.312C499.702 367.442 500.556 370.887 501.054 372.966C501.562 375.008 501.964 376.823 501.924 376.971C501.591 378.189 505.967 392.153 508.445 397.866C515.729 414.527 527.328 427.093 540.466 432.583C541.981 433.195 543.362 433.889 543.645 434.086C543.865 434.304 545.276 434.888 546.697 435.435C548.943 436.246 549.363 436.559 550 437.922C551.456 441.215 549.203 444.129 544.546 444.959C540.834 445.612 533.222 444.326 527.329 442.083C514.445 437.098 504.18 425.809 493.619 404.922C489.347 396.538 481.653 376.037 478.574 364.925C478.154 363.383 477.584 361.363 477.283 360.409C476.983 359.454 476.386 356.714 475.874 354.274C475.415 351.848 474.903 349.409 474.731 348.806C474.611 348.218 474.185 346.08 473.854 344.007C472.801 336.977 470.183 326.23 469.147 324.48C468.989 324.238 468.308 322.624 467.605 320.886C464.899 314.159 457.469 302.137 452.397 296.271C447.104 290.186 438.178 281.801 431.456 276.635C425.018 271.665 410.324 262.22 408.027 261.593C407.61 261.479 406.825 261.066 406.302 260.725C405.788 260.347 403.685 259.217 401.551 258.199C378.775 247.34 354.725 240.734 327.356 237.862C324.198 237.516 320.906 237.251 319.968 237.193C314.28 236.87 309.333 236.709 308.469 236.79C307.887 236.869 307.168 236.832 306.907 236.76C305.185 236.29 281.051 237.592 278.444 238.308C277.966 238.416 276.042 238.684 274.191 238.892C268.865 239.5 254.963 242.763 248.351 245.003C239.216 248.061 229.636 252.544 222.182 257.25C219.273 259.073 211.927 264.206 211.857 264.464C211.827 264.575 210.762 265.394 209.49 266.356C204.804 269.756 194.495 279.988 190.161 285.388C189.544 286.211 188.627 287.309 188.153 287.814C187.668 288.356 186.567 289.72 185.63 290.892C183.726 293.347 178.332 300.162 176.623 302.313C175.954 303.121 174.575 304.886 173.535 306.228C172.444 307.556 170.9 309.514 170.055 310.553C169.169 311.54 168.439 312.57 168.388 312.755C168.328 312.976 166.965 314.27 165.291 315.676C154.888 324.614 138.229 330.376 119.954 331.375C111.753 331.832 101.917 331.09 96.3853 329.58C92.1056 328.411 91.3062 328.669 92.3462 330.817C95.564 337.723 101.818 344.189 109.775 348.939C117.113 353.282 120.718 354.663 134.35 358.345C145.842 361.443 147.375 361.783 152.889 362.336C160.299 363.13 166.758 363.506 170.557 363.353C179.966 362.988 186.123 362.21 194.062 360.451C204.911 358.1 220.139 351.828 230.431 345.556C236.82 341.67 238.197 340.737 242.123 337.447C247.993 332.585 251.328 328.38 255.713 320.536C256.737 318.634 258.499 315.467 259.606 313.469C265.988 302.006 269.694 295.007 270.036 293.752C270.469 292.165 274.407 287.808 280.046 282.764C280.625 282.288 281.915 281.054 283.011 280.123C289.104 274.649 300.919 269.785 311.598 268.259C319.408 267.179 327.202 267.8 345.796 270.973C377.499 276.457 402.291 291.434 423.89 318.111C428.913 324.36 433.439 330.791 437.191 336.971C440.85 343.085 450.166 361.135 449.985 361.799C449.955 361.91 450.167 362.364 450.504 362.773C450.779 363.205 451.5 364.671 452.033 366.006C453.587 369.762 454.885 372.813 455.544 374.302C457.053 377.608 459.122 382.972 464.546 397.817C467.77 406.549 471.033 414.935 471.796 416.452C479.596 431.43 491.758 442.96 508.125 450.799C516.251 454.723 529.806 459.098 537.605 460.315C544.863 461.464 554.306 459.125 558.964 455.003C562.724 451.707 564.293 449.042 565.998 443.004L567.541 437.556L571.421 437.109C577.12 436.365 585.352 434.765 589.142 433.619C592.942 432.436 600.381 428.4 605.563 424.619C610.735 420.876 613.811 416.799 612.445 415.434Z" fill="#d6dee9" fill-rule="nonzero" opacity="1" stroke="#4d69e6" stroke-linecap="butt" stroke-linejoin="round" stroke-width="5" vectornator:layerName="path"/>
<path d="M514.955 463.371C513.497 462.14 510.473 460.481 503.633 457.186C491.481 451.37 484.374 446.178 475.499 436.577C469.737 430.364 459.682 414.81 455.497 405.696C448.03 389.5 435.638 368.748 423.42 352.286C400.744 321.547 379.926 302.896 359.067 294.464C352.953 292.002 351.022 291.475 342.534 290.109C331.533 288.295 318.891 288.175 311.441 289.789C307.211 290.696 301.496 293.141 298.289 295.438C296.686 296.587 295.332 297.645 295.301 297.755C295.261 297.903 294.734 298.394 294.156 298.87C290.517 301.723 286.026 308.31 280.171 319.282C276.26 326.621 273.75 331.091 272.638 332.493C271.969 333.302 271.188 334.516 270.788 335.16C270.02 336.537 264.646 343.279 263.068 344.95C252.97 355.438 245.66 361.056 234.581 366.716C228.653 369.737 217.798 373.753 211.201 375.322C194.764 379.242 178.245 379.768 158.436 376.937C150.658 375.845 129.887 370.174 123.468 367.39C115.44 363.929 106.233 359.036 101.58 355.743C100.93 355.249 100.103 354.785 99.8419 354.714C98.8503 354.443 91.0028 349.088 88.4008 346.911C82.2316 341.776 78.9632 337.315 78.1542 333.089C77.3571 329.024 78.033 327.781 82.902 323.916C92.909 316.02 93.2186 315.708 94.3039 312.554C95.1036 310.036 95.1604 309.417 94.4592 307.877C92.5358 303.624 88.0531 300.735 79.2512 298.054C73.5084 296.288 73.0808 296.211 69.7396 296.33C67.814 296.399 65.3298 296.871 64.1266 297.375C59.0545 299.52 54.6515 305.376 52.606 312.868C49.6721 323.409 53.7017 333.709 67.052 349.925C81.9807 367.96 106.471 386.305 130.436 397.33C134.462 399.222 145.369 403.231 149.544 404.371C154.815 405.81 166.14 411.162 182.588 419.936C184.743 421.08 188.081 422.824 189.953 423.771C191.868 424.77 194.274 426.021 195.341 426.63C196.419 427.202 198.197 428.084 199.295 428.582C200.383 429.117 203.415 430.54 205.988 431.797C216.54 436.899 227.658 441.164 236.791 443.658C241.906 445.054 258.807 448.677 260.307 448.729C260.754 448.733 263.069 449.087 265.52 449.558C270.808 450.526 292.41 451.308 298.549 450.803C300.619 450.615 302.237 451.057 305.386 452.67C308.733 454.377 320.735 459.716 323.942 460.909C325.373 461.418 328.3 462.614 330.525 463.499C335.866 465.711 354.758 471.9 363.057 474.166C385.499 480.293 409.108 483.17 427.829 481.976C443.407 480.994 450.982 479.335 461.269 474.728C477.82 467.31 493.701 464.19 504.184 466.26C512.895 468.043 518.472 466.512 514.955 463.371ZM435.748 412.915C434.929 413.247 434.035 413.439 433.826 413.382C432.887 413.125 430.398 410.741 425.686 405.608C422.962 402.643 419.504 399.082 418.014 397.763C410.318 390.824 390.97 379.117 372.763 370.418C362.494 365.512 354.978 362.231 344.194 357.978C342.271 357.215 338.634 355.746 336.115 354.702C333.189 353.506 326.944 351.524 318.686 349.11C306.054 345.463 305.741 345.378 304.512 344.13C302.987 342.524 302.906 341.59 304.124 340.415C305.786 338.847 310.228 338.394 322.379 338.46C329.2 338.537 344.403 340.983 353.745 343.534C368.307 347.509 380.768 353.013 392.51 360.74C408.547 371.226 415.045 377.005 425.27 389.671C432.137 398.208 435.431 403.192 436.947 407.294C438.184 410.566 437.855 412.182 435.748 412.915Z" fill="#d6dee9" fill-rule="nonzero" opacity="1" stroke="#4d69e6" stroke-linecap="butt" stroke-linejoin="round" stroke-width="5" vectornator:layerName="path"/>
</g>
<g fill="#131313" filter="url(#Filter_2)" stroke="#131313" stroke-linecap="butt" stroke-linejoin="round" stroke-width="7" vectornator:layerName="Text 1" vectornator:shadowAngle="0.523599" vectornator:shadowColor="#4d69e6" vectornator:shadowOffset="9.77751" vectornator:shadowOpacity="1" vectornator:shadowRadius="9.78">
<path d="M658.245 108.255C658.245 110.855 660.445 113.255 663.245 113.255C664.845 113.255 666.245 112.655 667.245 111.255L689.445 81.2554C690.045 80.4554 690.445 79.2554 690.445 78.2554L690.445 77.2554C690.445 76.2554 690.045 75.0554 689.445 74.2554L667.245 44.2554C666.245 42.8554 664.845 42.2554 663.245 42.2554C660.445 42.2554 658.245 44.6554 658.245 47.2554C658.245 48.2554 658.645 49.4554 659.245 50.2554L679.645 77.6554L659.245 105.255C658.645 106.055 658.245 107.255 658.245 108.255ZM692.245 108.255C692.245 110.855 694.445 113.255 697.245 113.255C698.845 113.255 700.245 112.655 701.245 111.255L723.445 81.2554C724.045 80.4554 724.445 79.2554 724.445 78.2554L724.445 77.2554C724.445 76.2554 724.045 75.0554 723.445 74.2554L701.245 44.2554C700.245 42.8554 698.845 42.2554 697.245 42.2554C694.445 42.2554 692.245 44.6554 692.245 47.2554C692.245 48.2554 692.645 49.4554 693.245 50.2554L713.645 77.6554L693.245 105.255C692.645 106.055 692.245 107.255 692.245 108.255Z"/>
<path d="M824.645 131.255L741.645 131.255C739.045 131.255 736.645 133.655 736.645 136.255C736.645 139.055 739.045 141.255 741.645 141.255L824.645 141.255C827.445 141.255 829.645 139.055 829.645 136.255C829.645 133.655 827.445 131.255 824.645 131.255Z"/>
</g>
<g fill="#131313" filter="url(#Filter_3)" stroke="#ebecf0" stroke-linecap="butt" stroke-linejoin="round" stroke-width="2" vectornator:layerName="Text 2" vectornator:shadowAngle="0.523599" vectornator:shadowColor="#4d69e6" vectornator:shadowOffset="9.77751" vectornator:shadowOpacity="1" vectornator:shadowRadius="9.78">
<path d="M20.2261 129.278C20.2261 138.878 26.0261 144.078 33.6261 144.078C41.2261 144.078 47.2261 138.878 47.2261 129.278L47.2261 78.6779L57.2261 102.078C60.2261 108.878 64.2261 111.478 70.0261 111.478C75.8261 111.478 79.8261 108.878 82.8261 102.078L92.8261 78.6779L92.8261 129.278C92.8261 138.878 98.8261 144.078 106.426 144.078C114.026 144.078 119.826 138.878 119.826 129.278L119.826 36.6779C119.826 27.2779 114.626 21.8779 106.226 21.8779C98.6261 21.8779 93.8261 27.0779 90.6261 34.2779L70.0261 79.0779L49.4261 34.2779C46.2261 27.0779 41.4261 21.8779 33.8261 21.8779C25.4261 21.8779 20.2261 27.2779 20.2261 36.6779L20.2261 129.278Z"/>
<path d="M159.626 51.4779C152.226 51.4779 146.226 56.4779 146.226 65.8779L146.226 108.478C146.226 129.878 160.626 143.478 182.826 143.478C193.226 143.478 201.626 139.878 206.626 135.278C208.626 140.078 213.026 143.478 219.226 143.478C226.626 143.478 232.626 138.478 232.626 129.078L232.626 65.8779C232.626 56.4779 226.626 51.4779 219.226 51.4779C211.826 51.4779 205.826 56.4779 205.826 65.8779L205.826 100.478C205.826 113.678 200.426 119.878 189.426 119.878C178.426 119.878 173.026 113.678 173.026 100.478L173.026 65.8779C173.026 56.4779 167.026 51.4779 159.626 51.4779Z"/>
<path d="M339.226 117.278C334.426 117.278 322.826 118.078 316.426 118.478L316.426 94.4779C316.426 83.2779 320.626 76.8779 329.626 76.8779C334.026 76.8779 337.226 78.0779 340.226 79.4779C342.626 80.6779 344.826 81.2779 347.426 81.2779C354.826 81.2779 361.026 75.6779 361.026 67.0779C361.026 55.4779 348.826 51.4779 339.226 51.4779C328.226 51.4779 318.626 56.6779 314.026 64.4779L313.426 62.0779C312.026 57.4779 308.626 53.6779 302.826 53.6779L278.626 53.6779C270.226 53.6779 264.626 58.0779 264.626 65.6779C264.626 73.0779 269.626 77.6779 277.426 77.6779C281.626 77.6779 286.826 76.8779 289.626 76.6779L289.626 118.478C286.026 117.878 280.826 117.278 276.626 117.278C268.826 117.278 263.826 121.878 263.826 129.278C263.826 136.878 269.426 141.278 277.826 141.278L340.026 141.278C348.426 141.278 354.026 136.878 354.026 129.278C354.026 121.878 349.026 117.278 339.226 117.278Z"/>
<path d="M431.426 143.478C444.026 143.478 474.426 139.278 474.426 122.078C474.426 115.678 469.426 110.878 462.626 110.878C458.426 110.878 455.026 112.478 452.026 114.278C444.826 118.478 438.626 120.878 431.026 120.878C420.626 120.878 411.426 115.278 408.426 104.678L464.626 104.678C473.026 104.678 477.626 99.8779 477.626 92.6779C477.626 68.4779 455.626 51.4779 430.626 51.4779C402.226 51.4779 381.426 69.0779 381.426 97.4779C381.426 125.878 401.026 143.478 431.426 143.478ZM430.626 72.2779C440.626 72.2779 449.426 76.6779 452.026 87.8779L408.626 87.8779C411.826 76.2779 420.826 72.2779 430.626 72.2779Z"/>
<path d="M508.026 119.678C505.426 122.078 503.426 125.278 503.426 130.278C503.426 136.878 508.226 143.278 516.826 143.278C521.626 143.278 525.026 141.278 528.226 137.878L549.826 114.878L571.626 137.878C574.826 141.278 578.226 143.278 583.026 143.278C591.626 143.278 596.426 136.878 596.426 130.278C596.426 125.278 594.426 122.078 591.826 119.678L567.426 97.4779L591.826 75.0779C594.426 72.6779 596.426 69.4779 596.426 64.4779C596.426 57.8779 591.626 51.4779 583.026 51.4779C578.226 51.4779 574.826 53.4779 571.626 56.8779L549.826 80.0779L528.226 56.8779C525.026 53.4779 521.626 51.4779 516.826 51.4779C508.226 51.4779 503.426 57.8779 503.426 64.4779C503.426 69.4779 505.426 72.6779 508.026 75.0779L532.226 97.4779L508.026 119.678Z"/>
</g>
</g>
</svg>
