<?xml version="1.0" encoding="UTF-8" standalone="no"?>
<!DOCTYPE svg PUBLIC "-//W3C//DTD SVG 1.1//EN" "http://www.w3.org/Graphics/SVG/1.1/DTD/svg11.dtd">
<!-- Created with Vectornator (http://vectornator.io/) -->
<svg height="100%" stroke-miterlimit="10" style="fill-rule:nonzero;clip-rule:evenodd;stroke-linecap:round;stroke-linejoin:round;" version="1.1" viewBox="0 0 841.995 595.35" width="100%" xml:space="preserve" xmlns="http://www.w3.org/2000/svg" xmlns:vectornator="http://vectornator.io" xmlns:xlink="http://www.w3.org/1999/xlink">
<defs/>
<g id="Layer-1" vectornator:layerName="Layer 1">
<g opacity="1" vectornator:layerName="g">
<path d="M831.746 67.8591C829.411 67.0683 831.863 67.033 786.886 68.3947C736.681 69.9416 721.206 71.2086 698.866 75.5425C688.63 77.5586 681.946 79.6336 666.086 85.6331C647.403 92.7726 638.596 95.3728 633.238 95.4499L631.366 95.4768L632.562 93.316C633.255 92.1517 636.428 88.3135 639.606 84.8599C645.325 78.5116 649.751 72.017 648.52 71.7049C646.705 71.2363 640.373 75.3399 632.018 82.4407C627.043 86.6347 622.767 90.104 622.445 90.1087C622.187 90.1124 619.072 89.0029 615.566 87.6243L609.202 85.0775L609.623 82.8729C610.756 76.4256 617.25 61.1069 625.29 45.546C630.379 35.7989 632.382 31.4278 632.362 30.054C632.331 27.9108 621.8 45.3214 616.662 56.1135C610.958 68.0131 602.886 90.2802 602.937 93.8522C602.951 94.7864 603.751 96.5887 604.674 97.8946C605.597 99.2554 606.198 100.621 606.075 101.007C605.763 101.781 598.815 103.475 598.162 102.935C596.92 101.909 605.044 74.2543 610.286 61.7017C618.4 42.2922 634.583 18.4244 641.516 15.6863C643.955 14.7168 646.376 12.4833 649.035 8.81735C650.617 6.59598 650.423 6.54382 647.088 8.07586C637.081 12.5621 626.444 22.5539 618.104 35.206C616.209 38.0914 610.785 47.0189 606.059 55.0568C598.936 67.0318 597.304 70.2433 596.831 73.2732C595.517 80.6574 593.981 81.6139 584.608 80.7594L578.402 80.1891L577.891 76.0741C577.073 68.5556 577.088 51.6811 578.008 48.315C578.435 46.55 578.608 45.1184 578.349 45.1221C577.639 45.1323 575.414 47.4729 574.343 49.3571C572.453 52.6272 570.298 64.3658 569.369 76.0868L569.051 80.8733L566.023 81.3017C564.412 81.4897 562.028 81.8538 560.804 82.0363L558.485 82.3445L555.701 72.8207C550.072 54.0486 546.17 34.0974 545.252 19.6548C544.993 15.1514 544.489 11.5309 544.231 11.5347C543.973 11.5384 543.146 12.3748 542.451 13.4291C540.172 16.5949 538.567 30.6891 539.115 41.8391C539.646 51.8351 540.83 57.8093 545.455 74.1773L548.383 84.6885L546.841 85.2054C546.005 85.4922 544.976 85.7269 544.589 85.7325C544.266 85.7371 541.053 86.7727 537.585 88.0319C534.052 89.2919 530.968 90.3257 530.646 90.3303C529.936 90.3405 524.969 81.6725 516.341 65.3071C512.491 57.9972 507.849 49.4345 506.06 46.2722C502.883 40.8214 502.747 40.3287 502.682 35.8225C502.609 30.7118 501.239 25.235 499.456 22.4574L498.333 20.7147L497.755 25.3951C496.668 35.0846 499.238 47.7445 505.251 61.839C514.809 84.4571 516.416 88.4464 517.375 92.2802C517.924 94.5808 518.418 97.4868 518.436 98.7508C518.461 100.509 518.726 100.945 519.63 100.932C521.501 100.905 521.834 101.56 520.623 102.677C519.605 103.681 519.608 103.901 520.74 106.303C522.738 110.561 523.43 113.794 522.812 115.727C522.503 116.666 521.998 117.498 521.611 117.503C520.579 117.573 514.555 107.216 511.88 100.769C510.541 97.4353 507.446 88.7404 505.016 81.355C502.585 73.9697 499.957 66.2575 499.151 64.1254L497.676 60.2991L496.876 63.0588C495.767 66.7025 495.975 76.7032 497.225 82.7863C498.336 88.2119 501.587 98.7734 503.589 103.362C505.462 107.842 505.743 109.487 504.861 110.983C503.602 113.2 502.503 113.106 502.468 110.688C502.407 106.402 499.625 106.002 499.039 110.188C498.8 111.51 497.762 115.648 496.654 119.401L494.685 126.135L493.45 121.041C490.911 110.58 488.682 99.2888 483.501 71.2212C478.248 42.66 475.809 30.163 475.222 29.7318C474.568 29.1915 474.063 43.4348 474.3 55.4138C474.752 77.833 477.813 97.6314 483.13 112.725C488.11 126.78 487.76 133.875 481.925 136.652C481.027 137.05 480.062 137.284 479.866 137.122C479.669 136.905 479.82 133.934 480.157 130.467C480.958 123.31 480.565 113.916 479.519 113.052C478.409 112.134 476.182 118.871 475.063 126.418C474.057 132.753 473.995 132.919 472.508 132.775C471.216 132.684 470.833 133.019 470.403 134.51C469.724 136.718 469.015 136.783 468.791 134.698C468.714 133.819 467.843 131.578 466.912 129.723C464.852 125.63 464.947 123.265 467.069 127.137C468.328 129.428 469.829 130.56 469.81 129.187C469.806 128.912 467.507 121.69 464.737 113.155C455.894 86.3492 449.595 65.8279 446.726 54.8761C445.221 49.0165 443.255 42.5039 442.385 40.3179L440.778 36.3835L441.192 42.6985C442.812 65.5407 449.972 96.548 461.157 129.091C463.178 134.943 464.802 140.087 464.807 140.471C464.821 141.406 459.678 142.909 455.485 143.189C451.551 143.465 451.417 143.138 452.486 136.636C453.202 132.559 453.193 131.954 452.214 131.199C450.646 129.902 449.5 131.018 448.65 134.768C447.799 138.463 446.739 141.006 446.158 141.015C445.641 141.022 444.375 138.292 436.623 119.99C426.732 96.6075 421.533 80.7425 418.591 64.735C416.981 56.0187 415.226 37.2459 415.762 34.1601C416.242 31.5698 415.266 31.0892 413.226 32.8774L411.568 34.3304L412.058 50.3732C412.631 67.7889 413.277 72.3417 417.568 87.8351C419.818 96.1574 420.426 98.0175 426.354 115.191C430.73 127.715 435.129 141.778 435.146 142.987C435.163 144.141 426.029 146.471 423.182 146.017C421.953 145.87 420.785 145.392 420.585 145.01C420.386 144.628 420.936 142.477 421.808 140.266C423.678 135.622 423.835 133.091 422.415 133.112C420.995 133.132 419.149 134.917 417.769 137.741C416.326 140.619 414.535 141.8 412.971 140.778C410.756 139.38 393.821 84.1093 389.131 63.2351C386.439 51.1266 384.263 43.5177 382.672 40.6274C381.876 39.1548 381.086 38.0669 380.959 38.2336C380.767 38.3463 380.711 43.4039 380.797 49.3939C381.111 71.2105 383.372 80.3022 401.43 132.864C403.654 139.318 405.479 145.008 405.486 145.502C405.505 146.821 404.218 147.115 396.413 147.612L389.512 148.041L387.8 145.757C385.169 142.332 377.233 129.2 374.441 123.633C371.117 116.92 366.099 104.735 358.855 85.8217C355.5 77.0206 351.285 66.6929 349.551 62.8702L346.416 55.8798L346.262 58.6303C345.785 65.8376 348.175 74.9274 354.873 91.7603C357.888 99.412 358.637 102.095 358.746 105.171C358.841 107.313 359.271 110.22 359.678 111.643C360.829 115.31 365.574 126.564 370.571 137.32C373.97 144.747 374.578 146.607 373.874 147.002C372.785 147.622 361.241 148.448 355.815 148.251L351.617 148.146L345.767 136.413C323.434 91.8279 317.624 78.3901 316.651 69.115C316.214 65.6035 315.803 64.0154 314.888 63.2041C312.663 61.1475 312.665 61.2574 314.115 72.2845C315.711 84.5188 318.687 93.9299 328.856 118.683C337.219 139.064 340.186 147.816 339.102 148.766C338.146 149.604 329.818 149.669 327.224 148.827C326.122 148.513 325.467 147.863 325.457 147.149C325.433 145.5 321.619 136.156 320.105 134.144C319.382 133.22 318.531 132.408 318.143 132.413C317.175 132.427 317.451 138.14 318.608 142.3C319.7 146.407 319.922 148.328 319.147 148.339C317.856 148.357 313.598 144.076 311.811 141.024C310.817 139.225 308.398 132.609 306.434 126.261C301.76 110.993 297.535 100.006 294.091 94.009C291.775 90.0299 291.036 88.0618 290.327 83.6748C289.693 80.0012 288.881 77.3746 287.692 75.5229C284.917 71.0557 284.473 71.6667 285.537 78.3022C287.528 91.0254 290.887 104.608 298.151 129.403C304.466 150.969 304.109 148.61 301.164 150.356C296.493 153.227 296.755 153.498 291.798 141.037C289.321 134.862 286.321 128.254 285.066 126.294L282.82 122.753L282.673 125.998C282.569 127.759 283.155 132.587 283.924 136.698C285.738 146.071 286.035 148.815 285.39 148.825C284.422 148.838 280.222 144.117 278.63 141.172C277.703 139.536 275.628 134.399 273.947 129.751C272.266 125.104 269.457 118.328 267.791 114.725C266.061 111.122 264.117 106.148 263.371 103.63C261.736 97.6626 260.608 95.5901 258.591 94.4649C257.615 93.9843 256.772 93.6666 256.644 93.7784C256.199 94.2795 257.772 104.865 259.136 109.902C261.254 118.062 266.631 132.825 270.759 141.505C272.825 145.982 272.908 147.3 271.193 149.249C270.176 150.363 269.47 150.648 268.434 150.388C266.36 149.868 265.313 148.894 262.803 144.917C261.414 142.629 260.037 141.164 259.26 141.011C258.161 140.862 258.1 141.137 258.53 144.099C259.029 147.335 258.668 149.209 257.7 149.223C257.055 149.232 251.542 138.483 250.061 134.272C249.455 132.522 248.489 128.249 247.988 124.793C246.93 118.598 245.388 114.607 243.496 113.26C242.648 112.668 242.394 112.946 241.779 115.044C240.675 119.072 241.178 127.145 243.04 135.418C243.94 139.637 244.912 144.35 245.127 145.831L245.554 148.573L239.869 148.325C232.116 147.887 210.171 148.258 203.788 148.845L198.63 149.303L195.559 146.709C193.206 144.764 191.971 144.123 190.551 144.143L188.614 144.171L189.683 146.684C191.154 150.181 190.578 150.519 184.304 149.729C179.777 149.19 178.099 149.214 170.174 150.263C161.862 151.372 156.505 151.504 97.6399 152.351C31.7392 153.299 30.5782 153.371 12.7969 155.935C9.25324 156.426 8.81012 157.037 8.74666 161.6C8.70219 167.482 11.9864 171.392 18.8614 173.601C22.6877 174.811 23.1396 174.804 54.7077 174.735C77.0435 174.633 87.8918 174.807 90.739 175.261L94.7518 175.972L94.7906 178.665C94.8119 180.149 93.7961 185.825 92.5843 191.339C89.2486 206.282 89.5861 216.281 93.6496 220.51L95.091 221.973L94.9739 213.84C94.9143 205.211 95.0882 203.835 98.8388 190.809C100.129 186.283 101.478 181.317 101.908 179.772C103.066 174.973 106.146 173.72 107.685 177.49C108.555 179.621 108.371 180.283 105.207 189.178C103.842 193.046 102.802 197.018 102.823 198.502L102.86 201.085L104.201 200.021C106.116 198.509 107.436 196.017 110.045 188.944C112.716 181.65 115.558 177.267 118.571 175.739C120.686 174.665 120.75 174.664 121.603 175.641C123.441 177.703 123.412 180.177 121.395 188.066L119.376 195.845L120.904 198.846L122.432 201.792L120.456 203.58C115.039 208.495 111.085 229.823 113.086 243.206C114.086 249.897 115.885 253.829 119.221 256.859C121.641 259.022 121.836 259.075 121.493 257.705C119.31 249.547 118.567 233.783 119.915 224.309C121.552 212.413 125.302 199.388 130.431 187.936C134.937 178.032 137.21 174.482 139.59 173.898C141.777 173.317 147.074 173.57 152.123 174.487L155.553 175.097L155.141 177.852C154.674 181.266 152.072 193.341 150.904 197.48C148.385 206.311 143.705 226.55 142.699 232.941C139.562 252.663 140.033 267.497 143.903 271.729L145.085 273.086L145.405 268.409C145.562 265.879 145.789 259.225 145.902 253.617C146.279 234.978 148.382 224.065 154.657 207.045C158.945 195.441 164.351 185.304 169.301 179.352C172.793 175.234 173.687 174.617 174.478 175.705C174.675 175.976 177.261 176.214 180.23 176.171C188.298 176.055 188.298 176.055 186.675 184.378C183.424 200.75 180.624 221.512 177.792 248.98C174.91 277.549 174.998 283.649 178.778 290.575C180.568 293.847 184.234 297.367 184.341 295.881C184.507 293.955 183.965 292.149 182.034 288.054C180.1 283.795 180.029 283.301 179.915 275.388C179.87 267.803 180.16 265.491 183.812 245.651C189.027 217.708 190.906 209.217 193.927 199.334C196.269 191.606 201.134 179.773 202.785 177.826C203.484 177.046 204.709 176.973 213.104 177.127C222.663 177.375 222.727 177.374 223.458 178.792C223.856 179.556 224.236 183.563 224.295 187.63C224.382 193.675 224.039 196.758 222.535 204.419C221.448 209.602 219.895 218.364 219.072 223.982C218.249 229.6 216.946 237.754 216.106 242.163C214.494 251.255 213.833 263.687 214.074 280.393C214.249 292.593 214.878 295.882 217.923 301.114L219.247 303.404L218.892 301.21C217.907 295.508 217.541 283.531 218.153 276.762C218.929 267.846 219.584 264.044 223.883 244.25C225.7 235.924 227.98 223.909 228.986 217.518C231.115 203.966 235.171 185.275 236.612 182.176C237.176 181.013 238.312 179.183 239.201 178.181C240.725 176.4 240.917 176.287 244.47 176.456C246.473 176.592 249.904 177.203 252.109 177.94C256.259 179.2 256.195 179.201 260.754 177.541C261.589 177.199 262.178 177.74 263.368 179.702C266.082 184.39 265.982 190.877 262.877 212.908C257.955 247.662 257.173 256.193 257.365 273.999C257.427 282.792 257.848 289.602 258.706 295.416C259.419 300.078 260.071 305.015 260.219 306.332C260.368 307.704 261.034 309.124 261.688 309.719C262.929 310.69 262.921 310.141 262.595 287.5C262.3 262.495 262.881 253.527 266.389 232.645C269.242 215.51 270.704 209.498 273.033 205.342C274.796 202.183 275.411 200.086 276.355 193.916C277.771 184.607 278.515 182.507 280.931 179.889L282.902 177.827L288.265 178.135C291.236 178.257 296.082 178.517 299.118 178.638C304.157 178.895 304.741 179.052 305.922 180.409C308.089 182.961 309.386 187.834 308.932 192.183C308.602 196.145 305.194 215.047 302.481 228.388C301.637 232.523 300.692 238.692 300.355 242.16C300.017 245.573 299.006 256.085 298.109 265.552C294.67 300.23 295.605 311.374 302.457 320.95C304.104 323.235 304.43 323.45 304.608 322.403C305.202 318.767 301.627 294.688 299.963 291.194C299.762 290.703 300.081 290.423 300.92 290.411C301.695 290.4 302.466 290.169 302.655 289.837C302.845 289.559 303.239 285.541 303.56 280.919C304.381 266.232 305.794 256.757 309.952 236.141C311.281 229.8 312.714 221.7 313.245 218.229C316.828 193.554 318.307 188.64 323.465 183.729C326.713 180.604 329.607 179.848 336.712 180.076C346.078 180.436 354.39 183.834 354.441 187.351C354.413 189.88 352.24 200.409 347.251 221.588C339.889 252.804 337.253 271.53 338.508 282.45C338.874 285.468 339.069 294.534 338.926 302.561C338.782 314.985 338.885 317.622 339.76 320.138C340.971 323.528 344.328 327.987 346.341 328.838C347.511 329.371 347.575 329.315 347.171 328.166C341.524 312.582 342.002 292.019 349.024 255.091C353.04 233.542 358.001 214.892 364.7 195.888C367.305 188.485 367.808 187.598 369.539 186.749C372.425 185.388 379.914 185.445 386.65 186.942L392.09 188.128L391.786 193.959C391.386 201.99 389.546 213.229 385.963 228.946C376.368 271.022 375.178 278.02 374.892 294.019C374.618 310.897 376.439 320.82 382.167 333.049C384.364 337.635 384.694 338.18 384.866 336.638C384.981 335.647 384.259 330.326 383.274 324.734C380.815 310.863 380.328 303.944 381.183 296.072C382.548 283.245 385.126 269.467 389.342 252.862C393.253 237.58 400.374 211.974 402.174 206.946C405.34 198.216 409.795 193.755 415.475 193.673C417.67 193.641 422.983 194.994 422.992 195.599C422.994 195.763 422.105 196.766 421.023 197.881C415.614 203.29 413.311 213.766 416.425 219.328C417.288 220.965 417.733 220.464 419.656 215.049C422.017 208.584 423.646 205.153 425.424 203.094C427.202 201.035 430.658 198.951 432.272 198.928C433.756 198.907 436 202.282 436.032 204.535C436.072 207.283 435.255 208.889 430.886 214.833C426.96 220.111 419.279 233.688 413.446 245.589C409.055 254.447 404.33 267.102 402.816 273.994C398.696 292.797 400.849 312.278 407.767 317.511L409.464 318.805L409.053 317.162C407.549 311.303 406.964 302.077 407.584 295.802C410.174 269.436 426.944 232.478 442.311 219.176C445.691 216.269 445.819 216.212 447.894 216.787C451.2 217.728 453.024 218.911 453.954 220.712C454.95 222.621 453.902 226.044 445.376 248.208C434.61 276.175 430.348 289.593 427.341 304.917C425.898 312.303 425.735 314.449 425.921 327.363C426.058 341.377 426.128 341.761 427.948 347.121C428.96 350.13 430.096 352.807 430.423 353.077C431.337 353.833 431.187 347.899 430.064 337.142C429.388 330.556 429.348 327.753 429.902 325.877L430.577 323.448L430.299 326.53C430.073 328.787 430.281 329.774 430.933 330.204C431.715 330.742 431.9 330.135 432.171 326.558C432.332 324.248 433.357 319.231 434.335 315.424C436.602 306.982 437.533 299.878 436.781 296.976C436.372 295.443 436.175 295.226 436.124 296.161C436.022 298.031 434.85 301.841 434.393 301.517C433.805 300.976 435.428 292.653 437.826 284.319C440.407 275.267 444.825 263.771 451.084 250.05C453.273 245.181 456.143 238.269 457.447 234.678C459.682 228.435 462.084 224.882 464.085 224.853C465.117 224.839 464.681 225.889 459.396 235.529C454.303 244.947 452.304 249.592 451.843 253.501C451.443 257.08 452.327 255.693 455.695 247.51C457.257 243.86 459.134 239.71 460.016 238.214C461.654 235.387 465.47 231.429 466.568 231.413C466.89 231.409 467.868 232.054 468.783 232.811C470.156 234 470.36 234.712 470.405 237.844C470.369 239.878 470.108 244.114 469.702 247.308C468.432 257.77 466.947 289.176 467.132 302.036C467.303 313.906 468.45 326.311 470.189 335.026C471.929 343.795 476.541 354.722 479.28 356.606C480.257 357.252 480.252 356.867 479.8 352.421C479.503 349.677 478.644 343.808 477.868 339.257C477.158 334.76 476.179 325.046 475.814 317.686C475.386 310.326 474.91 304.177 474.649 304.016C474.453 303.799 474.332 308.858 474.423 315.232C474.594 327.102 474.276 331.889 473.308 331.903C472.533 331.914 472.059 294.489 472.68 283.817C472.998 278.976 473.612 272.316 474.08 268.957C474.485 265.653 475.053 260.258 475.264 257.012C475.469 253.271 475.944 250.406 476.638 249.297C477.709 247.468 479.562 246.122 480.216 246.717C480.412 246.879 479.743 249.747 478.628 253.006C476.527 259.522 475.789 266.568 476.803 269.742C477.409 271.492 477.535 271.27 477.861 266.978C478.536 260.098 479.799 253.649 481.181 250.936C483.687 245.678 487.473 244.029 490.547 246.788C493.554 249.438 493.853 252.237 494.295 282.957C494.672 309.17 494.84 311.86 495.988 315.362C497.541 320.121 499.128 322.737 502.072 325.443C504.035 327.228 508.854 330.127 508.844 329.468C508.843 329.358 507.837 326.734 506.565 323.619C503.153 315.314 501.342 306.105 500.781 294.021C500.16 282.268 500.881 274.067 503.151 265.79C504.807 259.775 507.626 253.743 508.472 254.226C510.163 255.081 511.705 259.071 512.43 264.612C512.865 267.904 513.505 272.017 513.852 273.716C514.477 276.785 516.277 280.716 517.116 280.704C517.31 280.702 517.55 274.927 517.513 267.892C517.542 260.911 517.715 255.027 517.843 254.915C518.034 254.748 518.815 255.176 519.599 255.824C520.906 256.96 521.111 257.726 521.548 265.69C522.137 275.191 523.79 282.367 528.297 294.999C534.487 312.389 542.768 327.111 554.802 342.383C558.88 347.601 560.124 348.847 561.677 349.099C562.713 349.249 565.121 350.644 566.951 352.211C571.654 355.991 572.633 356.692 574.252 357.053C575.677 357.418 575.677 357.418 574.675 355.068C573.205 351.627 571.166 349.018 564.942 342.676C553.541 331.023 542.414 311.506 537.326 294.375C534.203 283.701 532.803 267.177 534.453 260.722L535.123 257.91L539.125 257.852L543.126 257.794L545.328 262.765C547.8 268.5 553.359 277.984 556.779 282.387C565.66 293.857 577.862 302.861 592.146 308.481C601.299 312.032 601.879 311.914 596.332 307.817C593.657 305.821 586.734 300.26 580.984 295.505C569.68 286.104 564.04 279.974 559.668 272.232C557.348 268.088 554.743 262.024 555.324 262.016C555.453 262.014 556.507 263.483 557.696 265.335C559.808 268.547 564.253 272.331 565.931 272.307C567.028 272.291 567.028 272.291 565.439 269.511C562.653 264.384 564.179 262.713 567.536 267.227C572.735 274.078 581.161 280.882 595.621 289.798C610.342 298.876 618.857 302.875 633.255 307.505C664.128 317.449 692.921 321.927 731.667 322.689C740.967 322.885 751.237 323.231 754.469 323.515C760.803 324.028 763.185 323.609 764.32 321.724C765.14 320.393 765.335 320.445 746.595 319.176C707.885 316.49 681.218 311.707 651.512 302.076C634.388 296.496 623.014 291.163 610.173 282.608C596.55 273.57 588.303 265.774 583.076 256.945C578.711 249.697 578.778 249.861 582.373 248.435C590.333 245.298 593.541 239.48 589.796 234.917C588.876 233.831 588.151 232.797 588.15 232.687C588.148 232.577 588.984 232.345 589.949 232.112C590.98 231.932 593.738 230.738 596.175 229.549C598.545 228.305 600.919 227.282 601.371 227.275C603.695 227.242 607.013 229.063 612.693 233.433L618.83 238.182L620.61 236.287C621.629 235.283 623.012 232.735 623.757 230.691C624.502 228.591 625.317 226.931 625.511 226.928C625.769 226.924 627.99 228.706 630.474 230.869C633.286 233.357 635.698 234.971 636.797 235.12C638.351 235.373 638.543 235.26 638.14 234.221C637.873 233.621 636.684 231.714 635.498 230.082C633.195 227.037 632.786 225.504 633.799 224.115C634.305 223.448 635.211 223.545 639.49 224.803C646.102 226.686 648.569 227.695 662.938 234.744C675.941 241.098 681.656 243.434 693.915 247.38C721.544 256.271 746.238 258.499 766.251 254.034C769.018 253.39 771.528 252.859 771.721 252.801C771.915 252.798 771.524 252.584 770.81 252.32C770.096 252.055 767.899 251.867 765.962 251.895C759.894 251.927 746.059 250.532 735.9 248.919C711.634 245.036 689.049 236.732 671.646 225.22C666.366 221.723 656.442 214.006 655.649 212.698C654.989 211.718 658.637 200.563 660.224 198.671C661.494 197.169 663.767 198.125 666.915 201.543C669.145 203.984 674.482 206.985 675.311 206.259C675.503 206.146 675.796 204.053 676.02 201.687L676.41 197.394L680.268 196.294C686.634 194.553 688.707 195.073 699.64 201.127C707.059 205.197 713.744 207.685 724.692 210.275C739.009 213.752 757.236 215.249 771.423 214.11C777.742 213.634 777.742 213.634 776.565 212.552C774.013 210.17 771.102 209.772 752.888 209.21L742.748 208.861L738.326 206.671C735.855 205.443 730.403 203.432 726.124 202.175C712.574 198.192 704.907 194.785 700.332 190.838L698.501 189.216L699.835 187.767C701.487 185.93 706.941 183.598 710.808 183.102C713.449 182.735 713.897 182.453 714.839 180.571C716.722 176.861 720.939 173.832 730.047 169.689C739.219 165.544 742.993 163.127 744.826 160.407L745.963 158.632L741.521 155.013C739.103 152.959 733.432 149.193 728.939 146.564C724.446 143.881 718.775 140.06 716.228 138.063L711.72 134.335L713.698 132.713C716.508 130.584 721.139 129.418 730.295 128.626C740.548 127.764 747.571 126.839 748.145 126.336C748.846 125.721 743.538 124.698 736.559 124.249C730.355 123.789 721.261 124.414 716.371 125.584C712.833 126.459 707.893 128.619 706.813 129.789C705.604 131.015 704.764 130.972 696.921 128.832C688.885 126.694 688.951 126.748 694.312 122.438C698.972 118.799 705.902 115.841 720.043 111.515C732.448 107.709 737.391 105.824 737.826 104.608C738.323 103.282 722.888 102.899 716.385 104.092C710.783 105.107 706.096 106.934 697.32 111.677C687.262 117.043 684.375 118.294 680.123 118.905L676.902 119.391L676.874 117.468C676.857 116.314 677.666 114.158 678.992 112.106C680.127 110.22 681.32 107.895 681.565 106.957C681.866 105.468 681.797 105.195 680.765 105.209C679.087 105.234 676.464 106.92 672.577 110.494C670.73 112.224 668.878 113.625 668.491 113.631C668.103 113.636 667.771 112.982 667.759 112.157C667.682 111.279 667.268 109.416 666.794 107.884L665.915 105.148L662.494 105.197C660.558 105.225 658.941 104.974 658.807 104.646C658.271 103.279 673.849 95.69 685.284 91.7878C702.18 85.9932 726.642 81.1341 756.355 77.7384C774.917 75.6025 807.54 72.5497 818.571 71.9512C826.118 71.5129 829.469 71.1348 830.944 70.454C833.766 69.1492 833.952 68.5969 831.746 67.8591Z" fill="#d6dee9" fill-rule="nonzero" opacity="1" stroke="#4d69e6" stroke-linecap="butt" stroke-linejoin="round" stroke-width="2.15867" vectornator:layerName="path"/>
<path d="M772.563 320.286C770.171 320.046 768.756 320.396 769.282 321.103C769.744 321.756 773.875 321.696 774.317 321.03C774.507 320.753 773.727 320.434 772.563 320.286Z" fill="#d6dee9" fill-rule="nonzero" opacity="1" stroke="#4d69e6" stroke-linecap="butt" stroke-linejoin="round" stroke-width="2.15867" vectornator:layerName="path"/>
<path d="M639.304 18.961C638.981 18.9657 638.662 19.2451 638.667 19.5748C638.672 19.9045 637.852 21.2355 636.773 22.5702C635.759 23.9039 634.879 25.5106 634.888 26.17C634.902 27.1043 635.539 26.5454 637.44 24.0447C639.911 20.8211 640.595 18.9425 639.304 18.961Z" fill="#d6dee9" fill-rule="nonzero" opacity="1" stroke="#4d69e6" stroke-linecap="butt" stroke-linejoin="round" stroke-width="2.15867" vectornator:layerName="path"/>
<path d="M449.088 259.422C448.698 259.263 448.446 259.652 448.457 260.421C448.467 261.135 447.349 264.174 445.971 267.162C444.031 271.423 443.477 273.244 443.576 275.661C443.665 277.364 443.807 278.242 443.992 277.634C444.177 277.027 445.543 273.27 447.035 269.291C449.833 261.83 450.194 260.011 449.088 259.422Z" fill="#d6dee9" fill-rule="nonzero" opacity="1" stroke="#4d69e6" stroke-linecap="butt" stroke-linejoin="round" stroke-width="2.15867" vectornator:layerName="path"/>
<path d="M441.022 282.129C440.066 282.967 439.144 286.224 439.79 286.214C440.629 286.202 441.698 284.263 441.678 282.834C441.665 281.955 441.468 281.738 441.022 282.129Z" fill="#d6dee9" fill-rule="nonzero" opacity="1" stroke="#4d69e6" stroke-linecap="butt" stroke-linejoin="round" stroke-width="2.15867" vectornator:layerName="path"/>
<path d="M265.24 314.285C264.195 313.42 263.089 312.887 262.899 313.109C262.133 313.725 264.252 317.432 265.814 318.289C267.181 319.039 267.244 318.983 267.222 317.444C267.207 316.4 266.546 315.31 265.24 314.285Z" fill="#d6dee9" fill-rule="nonzero" opacity="1" stroke="#4d69e6" stroke-linecap="butt" stroke-linejoin="round" stroke-width="2.15867" vectornator:layerName="path"/>
</g>
<g fill="#4d69e6" opacity="1" stroke="#4d69e6" stroke-linecap="butt" stroke-linejoin="round" stroke-width="2" vectornator:layerName="Text 1">
<path d="M561.713 183.798C561.713 186.634 560.953 189.015 559.433 190.939C557.745 193.033 555.534 194.079 552.799 194.079C549.963 194.079 547.785 192.915 546.265 190.585C544.915 188.559 544.24 186.06 544.24 183.089C540.829 190.686 535.478 194.485 528.185 194.485C525.382 194.485 522.951 194.062 520.891 193.218C520.891 194.603 520.891 195.717 520.891 196.561C520.891 204.023 520.267 209.966 519.018 214.389L511.522 214.389C512.771 208.547 513.396 203.297 513.396 198.638L513.396 146.522L520.841 146.522L520.841 180.101C520.841 188.103 523.525 192.104 528.894 192.104C533.249 192.104 536.828 190.332 539.631 186.786C542.231 183.511 543.53 179.645 543.53 175.188L543.53 146.522L551.026 146.522L551.026 185.267C551.026 186.584 551.364 187.782 552.039 188.863C552.816 190.112 553.829 190.737 555.078 190.737C557.711 190.737 559.028 187.85 559.028 182.076C559.028 182.38 558.995 180.928 558.927 177.721L561.713 177.721L561.713 183.798Z"/>
<path d="M622.894 193.269C619.821 193.066 616.343 192.965 612.46 192.965C610.637 192.965 606.737 193.066 600.761 193.269L600.761 189.926C603.361 189.825 604.661 188.913 604.661 187.191C604.661 186.854 601.149 182.042 594.126 172.757L585.922 182.937C584.909 184.186 584.402 185.385 584.402 186.533C584.402 188.593 585.449 189.724 587.542 189.926L587.542 193.269C582.782 193.066 579.354 192.965 577.261 192.965C573.952 192.965 570.964 193.066 568.297 193.269L568.297 189.926C573.429 189.926 577.936 187.765 581.819 183.444C583.575 181.485 587.07 177.163 592.303 170.478L581.566 156.5C579.169 153.393 577.43 151.553 576.349 150.979C575.134 150.304 572.618 149.966 568.803 149.966L568.803 146.522C572.517 146.792 575.927 146.927 579.034 146.927C580.047 146.927 583.98 146.792 590.834 146.522L590.834 149.966C588.302 150.034 587.036 150.912 587.036 152.6C587.036 153.275 590.142 157.58 596.355 165.515L603.141 157.057C604.256 155.672 604.813 154.406 604.813 153.258C604.813 151.199 603.749 150.101 601.622 149.966L601.622 146.522C605.269 146.792 608.713 146.927 611.954 146.927C614.419 146.927 617.407 146.792 620.918 146.522L620.918 149.966C615.786 150.068 611.481 151.908 608.004 155.487C607.362 156.162 604.036 160.281 598.026 167.844L612.562 186.533C613.811 188.12 615.364 189.133 617.221 189.572C618.302 189.842 620.192 189.96 622.894 189.926L622.894 193.269Z"/>
</g>
</g>
</svg>
