<?xml version="1.0" encoding="UTF-8" standalone="no"?>
<!DOCTYPE svg PUBLIC "-//W3C//DTD SVG 1.1//EN" "http://www.w3.org/Graphics/SVG/1.1/DTD/svg11.dtd">
<!-- Created with Vectornator (http://vectornator.io/) -->
<svg height="100%" stroke-miterlimit="10" style="fill-rule:nonzero;clip-rule:evenodd;stroke-linecap:round;stroke-linejoin:round;" version="1.1" viewBox="0 0 774.293 335.002" width="100%" xml:space="preserve" xmlns="http://www.w3.org/2000/svg" xmlns:vectornator="http://vectornator.io" xmlns:xlink="http://www.w3.org/1999/xlink">
<defs/>
<clipPath id="ArtboardFrame">
<rect height="335.002" width="774.293" x="0" y="0"/>
</clipPath>
<g clip-path="url(#ArtboardFrame)" id="Layer-1" vectornator:layerName="Layer 1">
<g opacity="0" vectornator:layerName="g">
<path d="M765.538 313.994C765.554 312.293 764.909 308.905 764.334 307.519C762.576 303.073 757.501 298.039 750.947 294.108C747.178 291.89 746.677 291.673 739.422 289.693C732.908 287.875 731.312 287.558 727.718 287.37C720.802 287.028 714.135 287.825 713.812 289.006C713.732 289.301 714.247 289.878 714.927 290.262C717.44 291.741 722.333 296.21 724.576 299.083C730.223 306.335 730.235 314.508 724.514 319.647C719.371 324.311 718.846 325 717.758 328.986C716.771 332.603 716.783 332.765 717.975 334.558C721.344 339.681 730.912 340.786 740.26 337.152C747.97 334.181 757.363 327.506 762.172 321.601C763.84 319.598 765.513 315.732 765.538 313.994Z" fill="#d6dee9" fill-rule="nonzero" opacity="1" stroke="#4d69e6" stroke-linecap="butt" stroke-linejoin="round" stroke-width="5" vectornator:layerName="path"/>
<path d="M712.773 345.193C709.446 342.381 706.402 338.536 705.389 335.88C703.735 331.463 703.839 329.231 706.188 319.601C708.75 309.395 708.786 307.62 706.899 294.812C705.831 287.223 702.479 279.368 697.715 272.992C695.333 269.803 689.631 264.598 685.799 262.204C679.055 257.943 677.037 257.115 665.337 253.96C655.681 251.324 653.825 250.936 649.709 250.605C638.955 249.731 627.368 249.859 626.429 250.832C626.172 251.158 627.161 252.261 629.522 254.294C635.336 259.292 638.142 262.16 642.406 267.289C650.786 277.469 655.685 288.284 656.644 298.738C657.544 308.382 657.305 312.957 655.539 320.247C654.434 324.704 653.931 327.779 654.157 328.594C654.351 329.321 654.484 331.301 654.458 333.038C654.321 337.443 654.686 339.803 655.853 343.333C659.435 353.631 666.355 361.151 674.919 364.084C680.967 366.172 690.058 366.354 695.935 364.548C699.06 363.577 703.846 360.839 706.645 358.391C707.596 357.58 708.639 356.635 708.938 356.36C710.251 355.251 715.349 349.108 715.54 348.407C715.671 347.927 714.777 346.89 712.773 345.193Z" fill="#d6dee9" fill-rule="nonzero" opacity="1" stroke="#4d69e6" stroke-linecap="butt" stroke-linejoin="round" stroke-width="5" vectornator:layerName="path"/>
<path d="M673.974 373.502C673.762 373.048 671.954 372.277 668.298 371.08C665.426 370.098 661.894 368.657 660.481 367.875C649.251 361.557 642.461 351.098 639.645 335.736C639.449 334.81 638.704 330.76 637.897 326.732C637.09 322.705 636.399 318.868 636.309 318.169C636.209 317.508 635.331 312.509 634.334 307.121C633.286 301.719 632.427 296.647 632.358 295.874C632.006 292.645 631.57 290.544 629.634 282.639C624.747 262.746 613.722 245.816 599.528 236.389C591.179 230.818 581.858 227.163 571.533 225.335C558.247 223.056 537.963 225.251 530.04 229.829C528.497 230.756 528.302 231.06 528.693 231.682C528.977 232.077 529.429 232.478 529.69 232.549C530.264 232.706 535.695 236.846 539.85 240.32C556.102 253.918 568.839 273.615 574.701 294.25C575.401 296.821 576.122 299.318 576.272 299.795C577.27 303.121 577.682 304.899 577.602 305.194C577.541 305.416 577.673 306.165 577.919 306.907C578.928 310.196 579.532 312.502 579.441 312.835C579.381 313.056 579.565 313.82 579.811 314.561C580.047 315.34 580.403 316.706 580.547 317.618C580.743 318.544 581.308 321.196 581.85 323.525C582.34 325.84 582.885 328.567 582.999 329.589C583.164 330.626 583.344 332.023 583.443 332.685C583.585 333.398 583.842 335.332 584.056 337.016C584.82 343.252 586.262 351.736 587.192 355.519C588.855 362.16 588.941 362.461 590.793 368.003C597.698 388.725 611.107 402.26 628.046 405.537C636.672 407.218 646.242 405.032 655.374 399.316C662.88 394.624 668.439 388.845 671.351 382.7C673.057 379.121 674.409 374.375 673.974 373.502Z" fill="#d6dee9" fill-rule="nonzero" opacity="1" stroke="#4d69e6" stroke-linecap="butt" stroke-linejoin="round" stroke-width="5" vectornator:layerName="path"/>
<path d="M612.445 415.434C612.078 415.136 610.324 414.578 608.144 414.141C603.053 413.068 597.684 411.166 594.971 409.394C589.818 406.084 583.853 399.379 579.612 392.114C577.084 387.815 574.911 382.424 571.836 372.939C570.967 370.164 566.291 354.016 565.709 351.835C564.423 346.685 563.499 342.468 563.6 342.098C563.661 341.877 563.539 341.09 563.293 340.349C563.057 339.571 562.346 337.037 561.7 334.679C561.106 332.336 560.438 329.854 560.192 329.112C559.537 326.99 558.727 323.795 557.709 319.512C557.19 317.308 556.488 314.539 556.196 313.348C555.57 310.917 545.89 283.926 543.803 278.835C540.033 269.636 537.797 265.298 533.037 258.288C525.481 247.144 513.452 236.563 500.594 229.84C494.369 226.554 490.899 225.091 483.065 222.358C475.951 219.86 474.333 219.418 466.886 217.94C455.453 215.652 446.991 214.808 437.903 215.024C428.743 215.299 424.262 216.098 416.957 218.823C406.58 222.731 396.141 225.433 382.314 227.804L374.309 229.188L373.679 230.88C372.642 233.65 372.737 233.716 388.968 238.147C406.608 242.963 414.904 246.061 426.622 252.235C431.131 254.616 434.197 256.325 435.277 257.096C435.696 257.409 437.163 258.404 438.451 259.232C451.135 267.414 464.881 281.358 473.195 294.454C481.805 308.107 485.092 315.786 490.961 335.987C492.8 342.398 494.519 348.221 494.723 348.911C494.969 349.653 495.638 352.135 496.284 354.493C496.93 356.85 497.588 359.37 497.844 360.074C498.038 360.801 498.632 363.144 499.162 365.312C499.702 367.442 500.556 370.887 501.054 372.966C501.562 375.008 501.964 376.823 501.924 376.971C501.591 378.189 505.967 392.153 508.445 397.866C515.729 414.527 527.328 427.093 540.466 432.583C541.981 433.195 543.362 433.889 543.645 434.086C543.865 434.304 545.276 434.888 546.697 435.435C548.943 436.246 549.363 436.559 550 437.922C551.456 441.215 549.203 444.129 544.546 444.959C540.834 445.612 533.222 444.326 527.329 442.083C514.445 437.098 504.18 425.809 493.619 404.922C489.347 396.538 481.653 376.037 478.574 364.925C478.154 363.383 477.584 361.363 477.283 360.409C476.983 359.454 476.386 356.714 475.874 354.274C475.415 351.848 474.903 349.409 474.731 348.806C474.611 348.218 474.185 346.08 473.854 344.007C472.801 336.977 470.183 326.23 469.147 324.48C468.989 324.238 468.308 322.624 467.605 320.886C464.899 314.159 457.469 302.137 452.397 296.271C447.104 290.186 438.178 281.801 431.456 276.635C425.018 271.665 410.324 262.22 408.027 261.593C407.61 261.479 406.825 261.066 406.302 260.725C405.788 260.347 403.685 259.217 401.551 258.199C378.775 247.34 354.725 240.734 327.356 237.862C324.198 237.516 320.906 237.251 319.968 237.193C314.28 236.87 309.333 236.709 308.469 236.79C307.887 236.869 307.168 236.832 306.907 236.76C305.185 236.29 281.051 237.592 278.444 238.308C277.966 238.416 276.042 238.684 274.191 238.892C268.865 239.5 254.963 242.763 248.351 245.003C239.216 248.061 229.636 252.544 222.182 257.25C219.273 259.073 211.927 264.206 211.857 264.464C211.827 264.575 210.762 265.394 209.49 266.356C204.804 269.756 194.495 279.988 190.161 285.388C189.544 286.211 188.627 287.309 188.153 287.814C187.668 288.356 186.567 289.72 185.63 290.892C183.726 293.347 178.332 300.162 176.623 302.313C175.954 303.121 174.575 304.886 173.535 306.228C172.444 307.556 170.9 309.514 170.055 310.553C169.169 311.54 168.439 312.57 168.388 312.755C168.328 312.976 166.965 314.27 165.291 315.676C154.888 324.614 138.229 330.376 119.954 331.375C111.753 331.832 101.917 331.09 96.3853 329.58C92.1056 328.411 91.3062 328.669 92.3462 330.817C95.564 337.723 101.818 344.189 109.775 348.939C117.113 353.282 120.718 354.663 134.35 358.345C145.842 361.443 147.375 361.783 152.889 362.336C160.299 363.13 166.758 363.506 170.557 363.353C179.966 362.988 186.123 362.21 194.062 360.451C204.911 358.1 220.139 351.828 230.431 345.556C236.82 341.67 238.197 340.737 242.123 337.447C247.993 332.585 251.328 328.38 255.713 320.536C256.737 318.634 258.499 315.467 259.606 313.469C265.988 302.006 269.694 295.007 270.036 293.752C270.469 292.165 274.407 287.808 280.046 282.764C280.625 282.288 281.915 281.054 283.011 280.123C289.104 274.649 300.919 269.785 311.598 268.259C319.408 267.179 327.202 267.8 345.796 270.973C377.499 276.457 402.291 291.434 423.89 318.111C428.913 324.36 433.439 330.791 437.191 336.971C440.85 343.085 450.166 361.135 449.985 361.799C449.955 361.91 450.167 362.364 450.504 362.773C450.779 363.205 451.5 364.671 452.033 366.006C453.587 369.762 454.885 372.813 455.544 374.302C457.053 377.608 459.122 382.972 464.546 397.817C467.77 406.549 471.033 414.935 471.796 416.452C479.596 431.43 491.758 442.96 508.125 450.799C516.251 454.723 529.806 459.098 537.605 460.315C544.863 461.464 554.306 459.125 558.964 455.003C562.724 451.707 564.293 449.042 565.998 443.004L567.541 437.556L571.421 437.109C577.12 436.365 585.352 434.765 589.142 433.619C592.942 432.436 600.381 428.4 605.563 424.619C610.735 420.876 613.811 416.799 612.445 415.434Z" fill="#d6dee9" fill-rule="nonzero" opacity="1" stroke="#4d69e6" stroke-linecap="butt" stroke-linejoin="round" stroke-width="5" vectornator:layerName="path"/>
<path d="M514.955 463.371C513.497 462.14 510.473 460.481 503.633 457.186C491.481 451.37 484.374 446.178 475.499 436.577C469.737 430.364 459.682 414.81 455.497 405.696C448.03 389.5 435.638 368.748 423.42 352.286C400.744 321.547 379.926 302.896 359.067 294.464C352.953 292.002 351.022 291.475 342.534 290.109C331.533 288.295 318.891 288.175 311.441 289.789C307.211 290.696 301.496 293.141 298.289 295.438C296.686 296.587 295.332 297.645 295.301 297.755C295.261 297.903 294.734 298.394 294.156 298.87C290.517 301.723 286.026 308.31 280.171 319.282C276.26 326.621 273.75 331.091 272.638 332.493C271.969 333.302 271.188 334.516 270.788 335.16C270.02 336.537 264.646 343.279 263.068 344.95C252.97 355.438 245.66 361.056 234.581 366.716C228.653 369.737 217.798 373.753 211.201 375.322C194.764 379.242 178.245 379.768 158.436 376.937C150.658 375.845 129.887 370.174 123.468 367.39C115.44 363.929 106.233 359.036 101.58 355.743C100.93 355.249 100.103 354.785 99.8419 354.714C98.8503 354.443 91.0028 349.088 88.4008 346.911C82.2316 341.776 78.9632 337.315 78.1542 333.089C77.3571 329.024 78.033 327.781 82.902 323.916C92.909 316.02 93.2186 315.708 94.3039 312.554C95.1036 310.036 95.1604 309.417 94.4592 307.877C92.5358 303.624 88.0531 300.735 79.2512 298.054C73.5084 296.288 73.0808 296.211 69.7396 296.33C67.814 296.399 65.3298 296.871 64.1266 297.375C59.0545 299.52 54.6515 305.376 52.606 312.868C49.6721 323.409 53.7017 333.709 67.052 349.925C81.9807 367.96 106.471 386.305 130.436 397.33C134.462 399.222 145.369 403.231 149.544 404.371C154.815 405.81 166.14 411.162 182.588 419.936C184.743 421.08 188.081 422.824 189.953 423.771C191.868 424.77 194.274 426.021 195.341 426.63C196.419 427.202 198.197 428.084 199.295 428.582C200.383 429.117 203.415 430.54 205.988 431.797C216.54 436.899 227.658 441.164 236.791 443.658C241.906 445.054 258.807 448.677 260.307 448.729C260.754 448.733 263.069 449.087 265.52 449.558C270.808 450.526 292.41 451.308 298.549 450.803C300.619 450.615 302.237 451.057 305.386 452.67C308.733 454.377 320.735 459.716 323.942 460.909C325.373 461.418 328.3 462.614 330.525 463.499C335.866 465.711 354.758 471.9 363.057 474.166C385.499 480.293 409.108 483.17 427.829 481.976C443.407 480.994 450.982 479.335 461.269 474.728C477.82 467.31 493.701 464.19 504.184 466.26C512.895 468.043 518.472 466.512 514.955 463.371ZM435.748 412.915C434.929 413.247 434.035 413.439 433.826 413.382C432.887 413.125 430.398 410.741 425.686 405.608C422.962 402.643 419.504 399.082 418.014 397.763C410.318 390.824 390.97 379.117 372.763 370.418C362.494 365.512 354.978 362.231 344.194 357.978C342.271 357.215 338.634 355.746 336.115 354.702C333.189 353.506 326.944 351.524 318.686 349.11C306.054 345.463 305.741 345.378 304.512 344.13C302.987 342.524 302.906 341.59 304.124 340.415C305.786 338.847 310.228 338.394 322.379 338.46C329.2 338.537 344.403 340.983 353.745 343.534C368.307 347.509 380.768 353.013 392.51 360.74C408.547 371.226 415.045 377.005 425.27 389.671C432.137 398.208 435.431 403.192 436.947 407.294C438.184 410.566 437.855 412.182 435.748 412.915Z" fill="#d6dee9" fill-rule="nonzero" opacity="1" stroke="#4d69e6" stroke-linecap="butt" stroke-linejoin="round" stroke-width="5" vectornator:layerName="path"/>
</g>
<g opacity="1" vectornator:layerName="g">
<path d="M768.279 60.8901C766.115 60.1574 768.388 60.1247 726.716 61.3864C680.202 62.8195 665.864 63.9934 645.166 68.0088C635.683 69.8767 629.49 71.7991 614.796 77.3577C597.486 83.9724 589.326 86.3814 584.362 86.4528L582.628 86.4778L583.736 84.4758C584.378 83.3971 587.318 79.841 590.262 76.6413C595.561 70.7596 599.661 64.7424 598.521 64.4532C596.84 64.0191 590.973 67.821 583.232 74.3999C578.622 78.2856 574.661 81.4999 574.362 81.5042C574.123 81.5077 571.237 80.4798 567.989 79.2025L562.093 76.8429L562.482 74.8003C563.533 68.827 569.549 54.6342 576.998 40.2171C581.713 31.1864 583.569 27.1367 583.55 25.8638C583.522 23.8781 573.765 40.009 569.004 50.0079C563.72 61.0328 556.241 81.6631 556.289 84.9726C556.301 85.8381 557.043 87.508 557.898 88.7179C558.753 89.9787 559.31 91.2438 559.195 91.6019C558.907 92.319 552.469 93.8885 551.864 93.3879C550.714 92.4369 558.24 66.8152 563.097 55.1854C570.614 37.2025 585.608 15.089 592.032 12.5522C594.292 11.654 596.535 9.58468 598.998 6.18819C600.464 4.1301 600.284 4.08177 597.194 5.5012C587.923 9.65768 578.067 18.9151 570.34 30.6371C568.585 33.3105 563.56 41.5817 559.181 49.0289C552.582 60.1236 551.069 63.099 550.631 65.9062C549.414 72.7477 547.991 73.6339 539.307 72.8422L533.557 72.3138L533.083 68.5013C532.325 61.5354 532.339 45.9013 533.192 42.7826C533.587 41.1473 533.747 39.8209 533.508 39.8244C532.85 39.8339 530.788 42.0024 529.796 43.7481C528.046 46.7779 526.049 57.6536 525.188 68.513L524.893 72.9477L522.088 73.3446C520.595 73.5188 518.387 73.8562 517.253 74.0253L515.103 74.3108L512.524 65.487C507.309 48.0947 503.694 29.6101 502.843 16.2291C502.604 12.0567 502.137 8.70232 501.898 8.70576C501.658 8.70921 500.892 9.48411 500.248 10.4609C498.137 13.394 496.65 26.4522 497.158 36.7827C497.65 46.044 498.746 51.579 503.032 66.7439L505.744 76.4825L504.315 76.9614C503.542 77.2271 502.588 77.4445 502.229 77.4497C501.93 77.454 498.953 78.4135 495.74 79.5801C492.467 80.7475 489.61 81.7053 489.311 81.7096C488.653 81.7191 484.051 73.6882 476.057 58.5257C472.491 51.7531 468.19 43.8198 466.533 40.89C463.589 35.8398 463.463 35.3833 463.403 31.2083C463.334 26.4733 462.065 21.3991 460.413 18.8257L459.373 17.211L458.837 21.5474C457.83 30.5247 460.212 42.2541 465.783 55.3125C474.638 76.2681 476.127 79.9642 477.015 83.5161C477.524 85.6476 477.982 88.3401 477.999 89.5111C478.022 91.1404 478.267 91.5442 479.104 91.5322C480.839 91.5072 481.146 92.1139 480.025 93.1486C479.081 94.0788 479.084 94.2824 480.133 96.508C481.984 100.454 482.625 103.449 482.053 105.24C481.766 106.109 481.299 106.88 480.94 106.885C479.984 106.95 474.403 97.3544 471.925 91.3809C470.684 88.2923 467.817 80.2365 465.565 73.394C463.313 66.5516 460.878 59.4062 460.131 57.4309L458.764 53.8858L458.024 56.4427C456.996 59.8185 457.189 69.0841 458.346 74.7201C459.376 79.7469 462.388 89.532 464.243 93.783C465.978 97.9339 466.239 99.4579 465.421 100.845C464.255 102.898 463.237 102.811 463.204 100.571C463.147 96.5997 460.57 96.2294 460.028 100.107C459.806 101.333 458.844 105.166 457.818 108.644L455.994 114.883L454.849 110.163C452.496 100.47 450.432 90.0096 445.632 64.0051C440.765 37.5432 438.505 25.9649 437.961 25.5653C437.355 25.0648 436.887 38.2611 437.107 49.3595C437.525 70.1309 440.361 88.474 445.288 102.458C449.901 115.48 449.577 122.054 444.171 124.627C443.339 124.995 442.445 125.212 442.263 125.062C442.081 124.861 442.221 122.109 442.534 118.896C443.275 112.265 442.911 103.562 441.942 102.761C440.913 101.91 438.85 108.153 437.814 115.144C436.882 121.014 436.824 121.168 435.447 121.035C434.249 120.95 433.895 121.261 433.496 122.642C432.867 124.688 432.21 124.748 432.003 122.816C431.931 122.002 431.124 119.926 430.262 118.207C428.353 114.415 428.441 112.224 430.407 115.811C431.574 117.933 432.965 118.983 432.946 117.71C432.943 117.455 430.813 110.764 428.247 102.856C420.054 78.0211 414.217 59.0082 411.559 48.8614C410.165 43.4325 408.344 37.3987 407.537 35.3733L406.049 31.7281L406.432 37.5789C407.933 58.7421 414.567 87.4702 424.93 117.621C426.802 123.043 428.307 127.809 428.312 128.165C428.324 129.031 423.559 130.423 419.675 130.683C416.03 130.939 415.906 130.635 416.896 124.612C417.559 120.834 417.551 120.274 416.644 119.574C415.191 118.373 414.13 119.406 413.342 122.881C412.554 126.304 411.571 128.661 411.033 128.668C410.555 128.675 409.382 126.146 402.199 109.189C393.035 87.5254 388.218 72.8265 385.493 57.9956C384.001 49.92 382.375 32.5271 382.872 29.6681C383.316 27.2683 382.412 26.8229 380.522 28.4797L378.986 29.8259L379.439 44.6895C379.971 60.825 380.57 65.0432 384.544 79.3978C386.629 87.1083 387.192 88.8317 392.685 104.743C396.74 116.347 400.815 129.376 400.831 130.496C400.847 131.565 392.384 133.724 389.746 133.303C388.608 133.167 387.525 132.724 387.34 132.37C387.156 132.017 387.665 130.023 388.473 127.975C390.206 123.672 390.352 121.327 389.036 121.346C387.72 121.365 386.01 123.019 384.731 125.635C383.394 128.302 381.735 129.396 380.286 128.449C378.233 127.154 362.543 75.9459 358.198 56.606C355.704 45.3875 353.688 38.3379 352.214 35.6601C351.477 34.2957 350.744 33.2878 350.627 33.4422C350.449 33.5466 350.397 38.2325 350.477 43.7822C350.768 63.9952 352.863 72.4186 369.593 121.117C371.653 127.096 373.344 132.368 373.351 132.826C373.368 134.048 372.176 134.32 364.945 134.781L358.551 135.178L356.965 133.062C354.527 129.889 347.174 117.722 344.588 112.565C341.508 106.345 336.859 95.0559 330.147 77.5324C327.039 69.3782 323.133 59.8096 321.527 56.268L318.623 49.7913L318.48 52.3397C318.038 59.0172 320.253 67.4389 326.458 83.0345C329.252 90.1238 329.946 92.6091 330.046 95.4594C330.135 97.4442 330.532 100.138 330.91 101.456C331.976 104.853 336.373 115.28 341.002 125.246C344.152 132.126 344.715 133.849 344.062 134.215C343.054 134.79 332.358 135.555 327.331 135.373L323.442 135.276L318.022 124.405C297.33 83.0971 291.947 70.647 291.046 62.0537C290.64 58.8003 290.26 57.329 289.412 56.5773C287.351 54.6718 287.352 54.7736 288.696 64.9902C290.175 76.3252 292.932 85.0446 302.354 107.978C310.102 126.862 312.85 134.97 311.846 135.85C310.96 136.627 303.245 136.687 300.841 135.907C299.82 135.616 299.214 135.013 299.204 134.352C299.182 132.824 295.648 124.167 294.246 122.303C293.575 121.447 292.787 120.694 292.428 120.699C291.531 120.712 291.787 126.005 292.859 129.86C293.871 133.664 294.076 135.444 293.358 135.454C292.162 135.471 288.217 131.505 286.562 128.677C285.64 127.01 283.399 120.88 281.58 114.999C277.249 100.853 273.334 90.6738 270.144 85.1179C267.998 81.4313 267.314 79.6078 266.657 75.5433C266.07 72.1398 265.317 69.7062 264.215 67.9906C261.644 63.8517 261.233 64.4178 262.219 70.5656C264.063 82.3536 267.175 94.9382 273.906 117.91C279.756 137.891 279.425 135.706 276.697 137.324C272.369 139.983 272.612 140.234 268.02 128.689C265.724 122.968 262.945 116.846 261.782 115.029L259.701 111.749L259.565 114.756C259.469 116.387 260.012 120.86 260.725 124.669C262.405 133.353 262.68 135.896 262.082 135.904C261.185 135.917 257.294 131.543 255.82 128.814C254.96 127.299 253.038 122.539 251.48 118.233C249.923 113.927 247.321 107.65 245.777 104.311C244.174 100.973 242.373 96.3645 241.682 94.0319C240.167 88.5029 239.122 86.5828 237.253 85.5403C236.349 85.095 235.568 84.8007 235.449 84.9042C235.037 85.3685 236.494 95.176 237.758 99.8429C239.721 107.402 244.703 121.081 248.527 129.123C250.441 133.271 250.518 134.492 248.929 136.297C247.987 137.329 247.333 137.593 246.372 137.353C244.451 136.871 243.481 135.968 241.156 132.284C239.869 130.164 238.593 128.807 237.874 128.665C236.855 128.527 236.799 128.782 237.197 131.526C237.659 134.524 237.325 136.261 236.428 136.273C235.83 136.282 230.722 126.323 229.35 122.422C228.788 120.8 227.894 116.841 227.429 113.639C226.449 107.899 225.021 104.202 223.268 102.954C222.483 102.405 222.247 102.663 221.677 104.607C220.654 108.339 221.12 115.818 222.846 123.483C223.679 127.392 224.58 131.759 224.779 133.131L225.174 135.671L219.907 135.442C212.724 135.036 192.392 135.379 186.479 135.923L181.7 136.348L178.854 133.945C176.675 132.143 175.53 131.548 174.214 131.567L172.42 131.593L173.411 133.921C174.773 137.161 174.239 137.474 168.427 136.743C164.233 136.243 162.678 136.265 155.335 137.237C147.634 138.264 142.671 138.386 88.1327 139.171C27.0761 140.05 26.0004 140.116 9.52611 142.492C6.24292 142.947 5.83238 143.513 5.77358 147.74C5.73237 153.19 8.77516 156.813 15.1448 158.86C18.6899 159.98 19.1085 159.974 48.3563 159.91C69.0503 159.816 79.1012 159.977 81.7391 160.397L85.457 161.056L85.4929 163.551C85.5127 164.926 84.5715 170.185 83.4488 175.293C80.3583 189.139 80.671 198.402 84.4358 202.32L85.7712 203.676L85.6628 196.141C85.6075 188.146 85.7686 186.871 89.2436 174.803C90.4393 170.61 91.689 166.008 92.0871 164.577C93.1596 160.131 96.0139 158.969 97.4399 162.463C98.2459 164.437 98.0752 165.051 95.1434 173.292C93.879 176.875 92.9152 180.555 92.9349 181.93L92.9694 184.323L94.2113 183.338C95.9855 181.937 97.2084 179.628 99.6262 173.075C102.101 166.317 104.734 162.256 107.525 160.841C109.484 159.845 109.544 159.844 110.335 160.749C112.037 162.66 112.01 164.952 110.142 172.261L108.272 179.469L109.687 182.249L111.102 184.979L109.272 186.635C104.253 191.188 100.59 210.949 102.443 223.348C103.37 229.547 105.037 233.19 108.128 235.997C110.37 238.002 110.55 238.05 110.233 236.782C108.21 229.223 107.521 214.618 108.771 205.841C110.287 194.819 113.762 182.751 118.514 172.141C122.688 162.965 124.794 159.676 127 159.135C129.025 158.596 133.934 158.831 138.611 159.681L141.789 160.246L141.407 162.798C140.974 165.961 138.563 177.148 137.482 180.983C135.148 189.165 130.812 207.917 129.88 213.838C126.973 232.111 127.41 245.854 130.995 249.775L132.09 251.032L132.387 246.699C132.532 244.354 132.743 238.189 132.847 232.994C133.197 215.725 135.145 205.614 140.959 189.845C144.932 179.094 149.94 169.703 154.527 164.188C157.761 160.373 158.591 159.8 159.323 160.808C159.506 161.06 161.902 161.281 164.652 161.241C172.127 161.133 172.127 161.133 170.623 168.845C167.612 184.013 165.018 203.249 162.393 228.698C159.724 255.167 159.805 260.818 163.307 267.235C164.965 270.267 168.362 273.528 168.461 272.152C168.615 270.367 168.113 268.694 166.323 264.9C164.532 260.954 164.466 260.496 164.36 253.165C164.319 246.138 164.587 243.995 167.971 225.613C172.802 199.725 174.543 191.857 177.343 182.701C179.512 175.541 184.02 164.578 185.549 162.774C186.197 162.051 187.332 161.984 195.11 162.127C203.966 162.356 204.026 162.355 204.702 163.669C205.071 164.377 205.424 168.089 205.478 171.857C205.559 177.458 205.241 180.314 203.848 187.413C202.84 192.214 201.402 200.332 200.639 205.537C199.877 210.742 198.67 218.297 197.891 222.382C196.397 230.806 195.786 242.324 196.008 257.802C196.171 269.105 196.753 272.152 199.574 277L200.801 279.121L200.473 277.089C199.559 271.806 199.22 260.709 199.788 254.437C200.506 246.177 201.114 242.655 205.097 224.315C206.78 216.601 208.893 205.469 209.824 199.549C211.797 186.993 215.555 169.675 216.89 166.804C217.412 165.727 218.465 164.031 219.289 163.103C220.7 161.453 220.878 161.349 224.17 161.505C226.026 161.631 229.205 162.196 231.248 162.88C235.093 164.047 235.033 164.048 239.258 162.51C240.031 162.193 240.576 162.695 241.679 164.512C244.194 168.855 244.101 174.866 241.225 195.277C236.664 227.477 235.94 235.38 236.118 251.878C236.175 260.025 236.565 266.334 237.36 271.72C238.02 276.04 238.624 280.614 238.762 281.834C238.9 283.105 239.517 284.421 240.123 284.972C241.272 285.872 241.265 285.363 240.963 264.386C240.689 241.219 241.228 232.911 244.478 213.564C247.121 197.688 248.476 192.118 250.634 188.267C252.267 185.341 252.837 183.398 253.712 177.681C255.023 169.056 255.713 167.111 257.951 164.685L259.778 162.775L264.746 163.06C267.499 163.173 271.989 163.414 274.801 163.526C279.47 163.765 280.011 163.91 281.105 165.167C283.113 167.532 284.315 172.047 283.894 176.076C283.588 179.747 280.431 197.259 277.917 209.619C277.135 213.45 276.26 219.166 275.947 222.379C275.634 225.541 274.698 235.281 273.867 244.052C270.68 276.181 271.547 286.506 277.895 295.377C279.421 297.494 279.723 297.694 279.888 296.724C280.438 293.355 277.126 271.046 275.584 267.809C275.398 267.354 275.694 267.095 276.471 267.084C277.189 267.073 277.903 266.859 278.078 266.551C278.254 266.294 278.619 262.571 278.916 258.289C279.678 244.681 280.987 235.903 284.839 216.802C286.07 210.928 287.398 203.423 287.89 200.208C291.21 177.345 292.58 172.793 297.359 168.243C300.368 165.348 303.049 164.648 309.632 164.858C318.31 165.192 326.011 168.34 326.058 171.599C326.032 173.942 324.019 183.697 319.397 203.319C312.575 232.241 310.133 249.59 311.296 259.708C311.635 262.504 311.816 270.904 311.684 278.341C311.55 289.852 311.645 292.295 312.456 294.625C313.578 297.767 316.688 301.898 318.554 302.686C319.637 303.179 319.696 303.128 319.322 302.064C314.09 287.625 314.534 268.573 321.04 234.36C324.76 214.394 329.356 197.116 335.562 179.508C337.976 172.649 338.443 171.828 340.046 171.041C342.72 169.78 349.659 169.833 355.899 171.22L360.939 172.319L360.658 177.721C360.287 185.161 358.582 195.575 355.263 210.136C346.373 249.12 345.27 255.603 345.005 270.426C344.752 286.064 346.439 295.257 351.746 306.588C353.781 310.836 354.087 311.341 354.246 309.913C354.353 308.995 353.684 304.064 352.772 298.883C350.493 286.032 350.042 279.622 350.835 272.328C352.099 260.445 354.487 247.679 358.393 232.294C362.017 218.136 368.614 194.412 370.282 189.754C373.216 181.665 377.343 177.532 382.606 177.456C384.639 177.427 389.562 178.68 389.57 179.24C389.572 179.393 388.748 180.321 387.746 181.354C382.734 186.366 380.601 196.073 383.486 201.226C384.286 202.742 384.698 202.277 386.48 197.261C388.666 191.272 390.176 188.092 391.823 186.185C393.47 184.277 396.673 182.346 398.168 182.325C399.543 182.305 401.622 185.432 401.652 187.52C401.688 190.066 400.932 191.553 396.884 197.061C393.246 201.951 386.13 214.53 380.726 225.556C376.657 233.763 372.28 245.488 370.877 251.874C367.06 269.294 369.054 287.344 375.464 292.191L377.037 293.391L376.656 291.868C375.262 286.439 374.72 277.892 375.295 272.078C377.694 247.651 393.232 213.409 407.469 201.084C410.601 198.391 410.72 198.338 412.641 198.871C415.704 199.743 417.395 200.839 418.256 202.508C419.179 204.277 418.208 207.448 410.309 227.983C400.334 253.894 396.386 266.326 393.599 280.523C392.262 287.366 392.111 289.354 392.284 301.319C392.411 314.303 392.476 314.659 394.162 319.625C395.099 322.413 396.152 324.893 396.454 325.143C397.302 325.844 397.163 320.346 396.122 310.38C395.496 304.278 395.459 301.681 395.972 299.942L396.598 297.692L396.34 300.548C396.131 302.639 396.323 303.553 396.927 303.951C397.652 304.45 397.823 303.888 398.075 300.574C398.223 298.433 399.173 293.785 400.08 290.258C402.18 282.436 403.042 275.855 402.346 273.166C401.966 271.745 401.784 271.544 401.737 272.411C401.642 274.143 400.556 277.673 400.133 277.373C399.588 276.872 401.092 269.161 403.313 261.439C405.705 253.053 409.798 242.402 415.597 229.689C417.625 225.178 420.285 218.774 421.493 215.447C423.563 209.663 425.788 206.371 427.642 206.345C428.599 206.331 428.194 207.304 423.299 216.236C418.579 224.961 416.727 229.265 416.301 232.887C415.93 236.202 416.749 234.918 419.87 227.336C421.316 223.954 423.055 220.109 423.873 218.723C425.39 216.104 428.926 212.437 429.943 212.423C430.242 212.418 431.148 213.016 431.995 213.717C433.267 214.819 433.456 215.478 433.498 218.381C433.465 220.265 433.222 224.19 432.846 227.149C431.67 236.842 430.294 265.94 430.466 277.854C430.624 288.851 431.686 300.345 433.298 308.419C434.91 316.544 439.183 326.667 441.72 328.413C442.626 329.011 442.621 328.655 442.203 324.536C441.927 321.993 441.131 316.556 440.412 312.339C439.754 308.173 438.847 299.172 438.51 292.353C438.113 285.535 437.672 279.838 437.43 279.689C437.248 279.487 437.136 284.174 437.221 290.08C437.379 301.078 437.084 305.512 436.187 305.525C435.47 305.536 435.03 270.862 435.606 260.974C435.9 256.489 436.469 250.319 436.903 247.206C437.278 244.145 437.804 239.147 438 236.139C438.189 232.674 438.63 230.019 439.273 228.992C440.265 227.297 441.982 226.05 442.588 226.601C442.77 226.752 442.15 229.409 441.117 232.428C439.17 238.465 438.486 244.993 439.426 247.934C439.987 249.555 440.104 249.35 440.406 245.373C441.032 238.999 442.202 233.024 443.482 230.51C445.804 225.638 449.311 224.111 452.159 226.667C454.946 229.123 455.222 231.716 455.632 260.177C455.981 284.463 456.137 286.956 457.2 290.2C458.64 294.61 460.11 297.033 462.838 299.54C464.656 301.195 469.121 303.88 469.112 303.269C469.11 303.167 468.178 300.736 467 297.851C463.839 290.156 462.161 281.624 461.641 270.428C461.066 259.539 461.734 251.941 463.837 244.272C465.371 238.699 467.983 233.111 468.767 233.558C470.333 234.35 471.762 238.047 472.434 243.181C472.837 246.231 473.43 250.041 473.752 251.615C474.331 254.459 475.998 258.102 476.776 258.09C476.955 258.088 477.177 252.737 477.143 246.22C477.17 239.752 477.331 234.3 477.449 234.197C477.626 234.042 478.349 234.439 479.076 235.039C480.287 236.091 480.477 236.801 480.882 244.18C481.428 252.982 482.959 259.631 487.135 271.335C492.869 287.446 500.542 301.086 511.692 315.235C515.47 320.069 516.623 321.224 518.062 321.458C519.021 321.597 521.252 322.889 522.948 324.341C527.305 327.843 528.211 328.492 529.712 328.827C531.032 329.165 531.032 329.165 530.104 326.988C528.742 323.8 526.853 321.382 521.086 315.507C510.523 304.71 500.215 286.628 495.5 270.756C492.606 260.867 491.309 245.557 492.838 239.577L493.459 236.971L497.166 236.918L500.874 236.864L502.914 241.469C505.204 246.783 510.355 255.57 513.524 259.649C521.751 270.276 533.056 278.618 546.29 283.826C554.771 287.116 555.308 287.006 550.169 283.21C547.69 281.361 541.276 276.208 535.949 271.803C525.476 263.093 520.25 257.414 516.199 250.241C514.051 246.401 511.637 240.783 512.175 240.776C512.295 240.774 513.272 242.135 514.373 243.851C516.33 246.827 520.447 250.332 522.002 250.31C523.019 250.295 523.019 250.295 521.546 247.719C518.966 242.97 520.379 241.422 523.49 245.604C528.306 251.951 536.113 258.255 549.51 266.516C563.149 274.926 571.038 278.632 584.378 282.921C612.982 292.134 639.658 296.283 675.557 296.988C684.172 297.17 693.687 297.491 696.682 297.754C702.55 298.23 704.758 297.841 705.809 296.095C706.569 294.862 706.749 294.91 689.386 293.734C653.522 291.245 628.816 286.814 601.293 277.891C585.428 272.721 574.889 267.78 562.992 259.854C550.371 251.481 542.73 244.257 537.887 236.077C533.843 229.362 533.905 229.514 537.235 228.193C544.61 225.286 547.583 219.896 544.113 215.668C543.261 214.662 542.59 213.704 542.588 213.602C542.587 213.501 543.361 213.286 544.255 213.069C545.21 212.903 547.766 211.797 550.023 210.695C552.219 209.543 554.419 208.594 554.838 208.588C556.99 208.557 560.065 210.245 565.327 214.294L571.013 218.693L572.662 216.938C573.606 216.008 574.888 213.647 575.578 211.753C576.268 209.808 577.024 208.269 577.203 208.267C577.442 208.263 579.5 209.914 581.801 211.918C584.407 214.223 586.641 215.719 587.66 215.857C589.099 216.091 589.277 215.986 588.904 215.024C588.657 214.467 587.555 212.701 586.456 211.189C584.322 208.368 583.943 206.947 584.881 205.661C585.351 205.043 586.19 205.133 590.154 206.298C596.28 208.043 598.567 208.978 611.879 215.508C623.927 221.395 629.221 223.559 640.579 227.215C666.178 235.453 689.056 237.518 707.598 233.38C710.162 232.783 712.487 232.292 712.666 232.238C712.845 232.236 712.484 232.037 711.822 231.792C711.161 231.547 709.125 231.372 707.331 231.398C701.709 231.428 688.89 230.136 679.478 228.642C656.996 225.044 636.07 217.35 619.947 206.684C615.055 203.444 605.861 196.294 605.126 195.083C604.514 194.175 607.895 183.839 609.365 182.087C610.541 180.695 612.647 181.581 615.564 184.747C617.63 187.009 622.575 189.79 623.343 189.117C623.52 189.012 623.792 187.073 623.999 184.881L624.361 180.903L627.935 179.884C633.833 178.272 635.754 178.753 645.884 184.362C652.757 188.133 658.95 190.438 669.093 192.838C682.358 196.059 699.246 197.446 712.39 196.391C718.245 195.95 718.245 195.95 717.154 194.947C714.789 192.741 712.092 192.372 695.218 191.851L685.822 191.528L681.726 189.499C679.436 188.361 674.385 186.498 670.421 185.333C657.867 181.643 650.763 178.486 646.524 174.83L644.828 173.326L646.064 171.985C647.595 170.282 652.648 168.121 656.23 167.663C658.678 167.322 659.093 167.061 659.965 165.317C661.71 161.88 665.617 159.074 674.055 155.235C682.553 151.395 686.05 149.155 687.748 146.635L688.801 144.991L684.686 141.638C682.445 139.735 677.191 136.246 673.029 133.81C668.866 131.324 663.612 127.784 661.252 125.934L657.075 122.48L658.908 120.977C661.511 119.004 665.802 117.924 674.285 117.191C683.784 116.392 690.291 115.534 690.823 115.069C691.473 114.499 686.554 113.551 680.089 113.135C674.34 112.709 665.915 113.288 661.385 114.372C658.107 115.183 653.53 117.184 652.529 118.268C651.409 119.404 650.631 119.364 643.365 117.381C635.919 115.4 635.98 115.45 640.947 111.458C645.264 108.085 651.685 105.345 664.786 101.337C676.279 97.8105 680.86 96.0641 681.262 94.9379C681.723 93.7091 667.423 93.3547 661.397 94.4599C656.207 95.4003 651.865 97.0924 643.734 101.487C634.415 106.459 631.74 107.618 627.8 108.184L624.816 108.634L624.791 106.852C624.775 105.783 625.524 103.786 626.753 101.884C627.804 100.138 628.91 97.9829 629.136 97.1139C629.416 95.7349 629.352 95.4812 628.395 95.495C626.841 95.5173 624.411 97.0801 620.81 100.391C619.098 101.994 617.382 103.292 617.024 103.297C616.665 103.303 616.357 102.696 616.346 101.932C616.274 101.118 615.891 99.3924 615.452 97.9729L614.638 95.4383L611.468 95.4839C609.674 95.5097 608.175 95.2767 608.051 94.9729C607.555 93.7069 621.988 86.6753 632.583 83.0599C648.236 77.6913 670.901 73.1893 698.429 70.0432C715.627 68.0643 745.852 65.2359 756.072 64.6815C763.064 64.2753 766.17 63.9251 767.536 63.2943C770.151 62.0854 770.323 61.5737 768.279 60.8901Z" fill="#d6dee9" fill-rule="nonzero" opacity="1" stroke="#4d69e6" stroke-linecap="butt" stroke-linejoin="round" stroke-width="2" vectornator:layerName="path"/>
<path d="M713.446 294.763C711.23 294.54 709.919 294.864 710.407 295.519C710.834 296.124 714.661 296.069 715.071 295.452C715.247 295.195 714.525 294.9 713.446 294.763Z" fill="#d6dee9" fill-rule="nonzero" opacity="1" stroke="#4d69e6" stroke-linecap="butt" stroke-linejoin="round" stroke-width="2" vectornator:layerName="path"/>
<path d="M589.982 15.5863C589.683 15.5906 589.388 15.8494 589.392 16.1549C589.396 16.4604 588.637 17.6936 587.637 18.9301C586.698 20.1658 585.882 21.6544 585.891 22.2654C585.904 23.1309 586.494 22.6132 588.255 20.2962C590.545 17.3096 591.178 15.5691 589.982 15.5863Z" fill="#d6dee9" fill-rule="nonzero" opacity="1" stroke="#4d69e6" stroke-linecap="butt" stroke-linejoin="round" stroke-width="2" vectornator:layerName="path"/>
<path d="M413.748 238.373C413.387 238.225 413.153 238.585 413.163 239.298C413.173 239.96 412.137 242.775 410.86 245.544C409.063 249.491 408.549 251.179 408.641 253.418C408.724 254.996 408.855 255.809 409.026 255.246C409.198 254.683 410.463 251.202 411.846 247.516C414.438 240.603 414.773 238.918 413.748 238.373Z" fill="#d6dee9" fill-rule="nonzero" opacity="1" stroke="#4d69e6" stroke-linecap="butt" stroke-linejoin="round" stroke-width="2" vectornator:layerName="path"/>
<path d="M406.275 259.41C405.389 260.187 404.535 263.204 405.133 263.195C405.911 263.184 406.902 261.387 406.882 260.064C406.871 259.249 406.688 259.048 406.275 259.41Z" fill="#d6dee9" fill-rule="nonzero" opacity="1" stroke="#4d69e6" stroke-linecap="butt" stroke-linejoin="round" stroke-width="2" vectornator:layerName="path"/>
<path d="M243.414 289.202C242.445 288.402 241.421 287.907 241.245 288.113C240.535 288.684 242.498 292.118 243.945 292.912C245.211 293.607 245.271 293.555 245.25 292.13C245.236 291.162 244.623 290.153 243.414 289.202Z" fill="#d6dee9" fill-rule="nonzero" opacity="1" stroke="#4d69e6" stroke-linecap="butt" stroke-linejoin="round" stroke-width="2" vectornator:layerName="path"/>
</g>
<g fill="#ebecf0" opacity="1" stroke="#4d69e6" stroke-linecap="butt" stroke-linejoin="round" stroke-width="2">
<path d="M467.1 168.624C467.1 170.288 468.508 171.824 470.3 171.824C471.324 171.824 472.22 171.44 472.86 170.544L487.068 151.344C487.452 150.832 487.708 150.064 487.708 149.424L487.708 148.784C487.708 148.144 487.452 147.376 487.068 146.864L472.86 127.664C472.22 126.768 471.324 126.384 470.3 126.384C468.508 126.384 467.1 127.92 467.1 129.584C467.1 130.224 467.356 130.992 467.74 131.504L480.796 149.04L467.74 166.704C467.356 167.216 467.1 167.984 467.1 168.624ZM488.86 168.624C488.86 170.288 490.268 171.824 492.06 171.824C493.084 171.824 493.98 171.44 494.62 170.544L508.828 151.344C509.212 150.832 509.468 150.064 509.468 149.424L509.468 148.784C509.468 148.144 509.212 147.376 508.828 146.864L494.62 127.664C493.98 126.768 493.084 126.384 492.06 126.384C490.268 126.384 488.86 127.92 488.86 129.584C488.86 130.224 489.116 130.992 489.5 131.504L502.556 149.04L489.5 166.704C489.116 167.216 488.86 167.984 488.86 168.624Z"/>
<path d="M573.596 183.344L520.476 183.344C518.812 183.344 517.276 184.88 517.276 186.544C517.276 188.336 518.812 189.744 520.476 189.744L573.596 189.744C575.388 189.744 576.796 188.336 576.796 186.544C576.796 184.88 575.388 183.344 573.596 183.344Z"/>
</g>
</g>
</svg>
