<?xml version="1.0" encoding="UTF-8"?>
<svg width="180.888px" height="33.92px" viewBox="0 0 180.888 33.92" version="1.1" xmlns="http://www.w3.org/2000/svg" xmlns:xlink="http://www.w3.org/1999/xlink">
    <title>Murex</title>
    <g id="Page-1" stroke="none" stroke-width="1" fill="none" fill-rule="evenodd">
        <g id="Murex" transform="translate(0, -0)" fill-rule="nonzero">
            <g transform="translate(0, 0)">
                <polygon id="Path" fill="#BEF455" points="19.44 17.952 19.248 17.952 15.984 0 7.44 0 -7.10542736e-15 31.92 7.776 31.92 11.616 15.504 11.76 15.504 14.544 28.704 20.352 28.704 27.84 15.264 28.032 15.264 26.016 31.92 33.792 31.92 37.776 0 29.232 0"></polygon>
                <path d="M55.344,7.344 L52.608,23.136 C52.272,25.104 50.784,26.496 49.104,26.496 C47.568,26.496 47.184,25.728 47.184,24.624 C47.184,24.096 47.28,23.472 47.376,22.8 L50.112,7.344 L42.096,7.344 L39.216,23.76 C39.072,24.624 38.976,25.584 38.976,26.304 C38.976,30.48 41.232,32.544 45.84,32.544 C48.048,32.544 50.4,31.872 52.56,29.52 L52.848,29.568 L52.848,31.92 L59.568,31.92 L59.904,27.264 L63.36,7.344 L55.344,7.344 Z" id="Path" fill="#748C86"></path>
                <path d="M74.832,16.896 C75.264,14.64 76.896,13.392 78.96,13.392 C80.16,13.392 81.312,13.776 82.224,14.256 L84.528,7.584 C83.568,6.96 82.08,6.624 80.688,6.624 C78.672,6.624 76.176,7.728 74.4,10.752 L74.256,7.344 L67.824,7.344 L67.632,12 L64.128,31.92 L72.144,31.92 L74.832,16.896 Z" id="Path" fill="#748C86"></path>
                <path d="M98.064,13.824 C98.064,16.416 94.128,17.76 91.344,17.904 C91.968,15.312 93.552,12.288 96.384,12.288 C97.248,12.288 98.064,12.768 98.064,13.824 Z M97.536,6.624 C88.224,6.624 82.8,14.64 82.8,22.8 C82.8,28.464 85.68,32.688 92.688,32.688 C98.064,32.688 101.856,30.528 102.816,29.856 L101.136,24.72 C99.408,25.728 97.2,26.736 94.896,26.736 C91.968,26.736 90.816,24.912 90.864,22.752 C96,22.416 105.12,20.976 105.12,12.912 C105.12,8.784 102.24,6.624 97.536,6.624 Z" id="Shape" fill="#748C86"></path>
                <polygon id="Path" fill="#748C86" points="123.168 7.392 118.224 13.776 115.584 7.392 107.52 7.392 113.04 19.2 102.384 31.92 111.168 31.92 116.352 25.392 119.232 31.92 127.68 31.92 121.728 19.344 131.616 7.392"></polygon>
            </g>
            <polygon id="Path" fill="#BEF455" points="143.602286 20.0066808 130.888 25.8417759 133.173714 31.92 152.030857 22.8756025 152.888 18.1102748 136.602286 8.92 133.221333 14.4147146"></polygon>
            <polygon id="Path" fill="#BEF455" points="161.602286 20.0066808 148.888 25.8417759 151.173714 31.92 170.030857 22.8756025 170.888 18.1102748 154.602286 8.92 151.221333 14.4147146"></polygon>
            <polygon id="Path" fill="#748C86" points="165.888 33.92 180.422884 33.92 180.888 30.92 166.353116 30.92"></polygon>
        </g>
    </g>
</svg>