<?xml version="1.0" encoding="UTF-8" ?>
<!DOCTYPE svg PUBLIC "-//W3C//DTD SVG 1.1//EN" "http://www.w3.org/Graphics/SVG/1.1/DTD/svg11.dtd">
<svg width="512pt" height="512pt" viewBox="0 0 512 512" version="1.1" xmlns="http://www.w3.org/2000/svg">
<g id="#000000ff">
<path fill="#000000" opacity="1.00" d=" M 336.54 0.00 L 374.84 0.00 C 384.63 0.93 393.86 6.96 398.06 15.93 C 400.94 21.52 400.99 27.93 401.46 34.05 C 409.56 141.95 417.66 249.85 425.76 357.75 C 427.37 378.52 428.78 399.31 430.52 420.07 C 432.86 444.04 435.22 468.01 437.55 491.98 C 452.72 492.06 467.90 491.92 483.07 492.04 C 488.42 491.87 493.21 496.66 493.07 502.00 C 493.20 507.17 488.80 511.63 483.72 512.00 L 28.33 512.00 C 23.23 511.67 18.79 507.17 18.93 501.99 C 18.78 496.64 23.60 491.86 28.95 492.04 C 44.71 491.92 60.48 492.06 76.25 491.98 C 78.23 459.61 80.06 427.23 82.15 394.87 C 82.36 389.47 87.44 385.44 92.68 385.50 C 97.86 386.09 102.42 390.65 101.99 396.04 C 100.22 428.03 98.16 460.01 96.28 492.00 C 167.87 492.01 239.46 491.99 311.05 492.01 C 312.75 492.03 314.42 491.64 316.01 491.05 C 332.63 485.02 348.83 477.81 364.29 469.21 C 376.76 462.19 388.86 454.17 398.79 443.77 C 403.56 438.63 407.87 432.71 409.57 425.80 C 410.88 420.60 409.96 415.23 409.64 409.97 C 405.72 356.65 401.65 303.35 397.95 250.02 C 396.31 226.35 394.45 202.70 393.42 179.00 C 393.42 176.20 391.75 173.84 390.56 171.42 C 377.39 145.94 364.34 120.39 351.16 94.91 C 348.61 89.85 343.69 86.04 338.04 85.23 C 329.84 83.96 321.79 86.74 314.17 89.43 C 292.40 96.78 270.84 104.95 250.26 115.23 C 201.46 139.80 155.91 170.85 115.11 207.18 C 112.43 208.89 113.30 212.35 112.94 215.02 C 111.08 246.18 109.24 277.35 107.29 308.50 C 107.06 313.93 102.00 317.97 96.74 317.93 C 91.40 317.35 86.84 312.55 87.41 307.05 C 89.41 272.69 91.52 238.35 93.60 204.00 C 93.69 199.98 96.61 196.95 98.79 193.85 C 119.88 164.93 140.87 135.94 161.97 107.03 C 174.45 89.95 190.43 75.45 208.65 64.69 C 215.51 60.71 222.62 57.19 229.65 53.53 C 259.25 38.20 288.83 22.84 318.43 7.50 C 324.24 4.54 329.91 0.78 336.54 0.00 M 335.87 20.95 C 299.50 39.93 263.02 58.72 226.60 77.61 C 207.89 87.16 191.35 100.98 178.83 117.87 C 171.41 127.96 164.06 138.11 156.72 148.26 C 189.08 125.34 223.38 105.07 259.52 88.69 C 278.09 80.03 297.56 73.52 317.09 67.41 C 330.64 63.42 346.57 63.90 358.15 72.79 C 364.48 77.40 368.45 84.34 371.80 91.26 C 377.56 102.44 383.30 113.63 389.07 124.81 C 386.35 92.49 383.68 60.16 380.91 27.84 C 380.69 23.37 376.49 19.70 372.03 20.01 C 361.32 19.98 350.62 20.01 339.91 20.00 C 338.48 19.90 337.11 20.30 335.87 20.95 M 413.88 456.88 C 408.00 463.70 401.05 469.52 393.72 474.73 C 384.42 481.13 374.79 487.30 364.37 491.72 C 381.87 491.85 399.37 491.62 416.86 491.84 C 416.94 485.16 415.73 478.58 415.35 471.94 C 414.33 467.71 415.03 463.27 413.80 459.09 C 413.82 458.54 413.86 457.43 413.88 456.88 Z" />
<path fill="#000000" opacity="1.00" d=" M 240.40 167.40 C 243.58 159.89 255.44 160.03 258.50 167.57 C 264.97 180.06 271.43 192.56 277.88 205.06 C 280.27 209.13 279.46 214.78 275.76 217.79 C 271.36 221.82 263.52 220.56 260.71 215.27 C 256.83 208.08 253.20 200.76 249.41 193.53 C 245.61 200.73 241.99 208.03 238.13 215.20 C 235.56 219.95 228.87 221.68 224.33 218.72 C 219.87 216.15 218.18 209.96 220.73 205.48 C 227.26 192.77 233.83 180.08 240.40 167.40 Z" />
<path fill="#000000" opacity="1.00" d=" M 294.80 174.02 C 294.78 168.67 299.73 164.13 305.03 164.35 C 318.06 164.32 331.09 164.32 344.11 164.35 C 349.43 164.07 354.43 168.58 354.46 173.95 C 354.55 185.29 354.55 196.64 354.46 207.99 C 354.41 213.01 350.00 217.42 344.99 217.56 C 339.64 217.96 334.58 213.34 334.57 207.95 C 334.43 200.08 334.57 192.21 334.52 184.34 C 327.92 184.33 321.33 184.32 314.74 184.35 C 314.70 192.25 314.84 200.15 314.68 208.05 C 314.61 213.45 309.47 218.06 304.09 217.55 C 298.76 217.33 294.40 212.32 294.76 207.03 C 294.76 196.03 294.68 185.02 294.80 174.02 Z" />
<path fill="#000000" opacity="1.00" d=" M 157.41 246.64 C 164.12 245.15 171.29 245.75 177.65 248.39 C 182.52 250.25 187.01 253.10 192.05 254.49 C 198.45 256.01 203.86 251.60 209.46 249.37 C 217.35 245.69 226.61 244.07 234.99 247.12 C 241.71 249.15 247.34 253.55 253.79 256.17 C 261.25 258.88 268.29 253.91 274.70 250.73 C 284.50 245.17 297.04 244.77 307.08 249.94 C 312.86 252.75 318.34 257.12 325.05 257.13 C 332.53 256.84 338.23 251.29 345.01 248.91 C 351.91 246.90 359.07 254.10 357.02 261.00 C 356.15 265.35 352.06 267.64 348.38 269.36 C 340.51 273.40 332.16 277.77 323.03 277.07 C 313.41 276.60 305.19 271.16 296.73 267.20 C 290.78 264.55 284.73 267.80 279.56 270.61 C 270.40 275.65 259.58 278.95 249.21 275.82 C 240.70 274.06 234.73 266.21 225.91 265.53 C 219.08 265.32 213.58 269.95 207.51 272.31 C 199.61 275.51 190.52 275.57 182.59 272.46 C 176.97 270.50 171.94 266.78 165.99 265.88 C 161.10 264.99 156.88 269.28 152.01 267.91 C 146.09 266.72 142.52 259.56 145.17 254.13 C 147.23 249.30 152.79 247.84 157.41 246.64 Z" />
<path fill="#000000" opacity="1.00" d=" M 158.50 300.74 C 165.28 299.45 172.43 300.33 178.72 303.17 C 183.99 305.43 189.00 309.05 194.95 309.08 C 200.89 308.88 205.83 305.20 211.10 302.90 C 220.97 298.30 233.01 298.95 242.39 304.47 C 247.82 307.55 253.35 311.86 259.98 311.18 C 267.92 309.80 274.28 304.26 281.92 302.02 C 290.60 299.40 300.27 300.46 308.20 304.84 C 313.54 307.59 318.78 311.46 325.05 311.45 C 332.34 311.14 337.98 305.93 344.51 303.37 C 350.63 301.28 357.58 306.55 357.32 312.98 C 357.40 317.26 354.36 320.88 350.59 322.53 C 342.54 326.60 334.33 331.45 325.04 331.45 C 315.44 331.58 306.91 326.67 298.66 322.38 C 294.74 320.24 289.85 319.92 285.79 321.86 C 277.51 325.71 269.37 330.85 259.99 331.25 C 251.94 331.73 244.26 328.52 237.42 324.59 C 233.80 322.62 230.26 319.97 225.97 319.82 C 220.45 319.45 215.92 323.11 211.02 325.02 C 203.62 328.49 195.10 330.32 187.07 328.07 C 180.04 326.50 174.00 322.19 167.10 320.34 C 161.49 318.76 156.50 324.19 150.98 321.93 C 145.52 320.19 142.65 313.31 145.28 308.22 C 147.65 303.23 153.61 301.90 158.50 300.74 Z" />
<path fill="#000000" opacity="1.00" d=" M 84.79 351.00 C 84.62 345.31 89.81 340.68 95.37 340.82 C 100.67 341.60 105.44 346.40 104.68 351.98 C 104.24 357.25 99.27 361.07 94.15 361.08 C 89.17 360.39 84.63 356.26 84.79 351.00 Z" />
<path fill="#000000" opacity="1.00" d=" M 218.58 354.80 C 226.87 353.12 235.71 354.74 242.94 359.10 C 248.16 362.14 253.57 366.15 259.97 365.51 C 268.29 364.05 274.89 358.05 283.03 356.02 C 291.84 353.68 301.48 355.14 309.31 359.76 C 314.53 362.52 319.87 366.25 326.06 365.71 C 332.90 364.94 338.26 360.15 344.48 357.70 C 350.84 355.47 358.07 361.31 357.29 368.00 C 357.09 371.94 354.23 375.19 350.75 376.77 C 342.92 380.71 334.98 385.44 325.97 385.75 C 317.00 386.15 308.72 382.04 301.03 377.92 C 296.81 375.34 291.53 373.80 286.75 375.79 C 278.06 379.60 269.73 385.19 259.96 385.58 C 251.58 386.06 243.68 382.56 236.60 378.45 C 231.98 375.49 226.36 372.69 220.81 374.85 C 213.06 378.15 205.55 382.76 196.93 383.31 C 188.99 384.01 181.47 380.80 174.45 377.49 C 171.19 375.97 167.81 374.19 164.09 374.47 C 160.55 374.48 157.53 376.93 153.99 376.81 C 149.97 376.76 146.18 373.98 144.88 370.18 C 143.23 365.81 145.18 360.44 149.31 358.23 C 158.70 353.25 170.44 353.31 179.92 358.04 C 185.55 360.66 191.47 364.64 197.98 363.01 C 205.19 361.15 211.13 355.99 218.58 354.80 Z" />
<path fill="#000000" opacity="1.00" d=" M 230.40 411.63 C 236.04 409.56 242.82 413.73 243.40 419.73 C 243.82 427.11 243.29 434.52 243.64 441.91 C 243.92 446.66 248.21 450.68 252.94 450.84 C 257.97 451.20 262.85 447.09 263.20 442.03 C 263.59 434.59 263.03 427.11 263.46 419.67 C 264.10 413.68 270.95 409.50 276.58 411.68 C 281.29 413.16 283.84 418.25 283.33 422.99 C 282.76 433.86 285.28 445.72 279.46 455.61 C 272.83 467.93 256.93 474.05 243.76 469.25 C 232.28 465.44 223.79 454.09 223.59 441.96 C 223.51 434.98 223.51 427.99 223.58 421.01 C 223.52 416.83 226.45 412.90 230.40 411.63 Z" />
<path fill="#000000" opacity="1.00" d=" M 166.06 421.85 C 166.54 416.60 171.83 412.46 177.04 413.19 C 181.88 413.62 185.92 418.05 185.89 422.92 C 186.03 429.02 185.89 435.12 185.94 441.22 C 191.86 444.56 197.80 447.86 203.70 451.24 C 207.84 453.36 210.22 458.42 208.82 462.93 C 207.41 468.72 200.19 472.02 194.91 469.19 C 188.59 465.79 182.41 462.11 176.11 458.66 C 170.36 462.12 164.68 465.71 158.87 469.06 C 154.15 471.74 147.54 469.53 145.33 464.59 C 143.07 460.25 144.68 454.42 148.86 451.86 C 154.48 448.42 160.09 444.92 165.81 441.64 C 166.17 435.05 165.68 428.44 166.06 421.85 Z" />
</g>
<g id="#e0e7efff">
<path fill="#e0e7ef" opacity="1.00" d=" M 335.87 20.95 C 337.11 20.30 338.48 19.90 339.91 20.00 C 350.62 20.01 361.32 19.98 372.03 20.01 C 376.49 19.70 380.69 23.37 380.91 27.84 C 383.68 60.16 386.35 92.49 389.07 124.81 C 383.30 113.63 377.56 102.44 371.80 91.26 C 368.45 84.34 364.48 77.40 358.15 72.79 C 346.57 63.90 330.64 63.42 317.09 67.41 C 297.56 73.52 278.09 80.03 259.52 88.69 C 223.38 105.07 189.08 125.34 156.72 148.26 C 164.06 138.11 171.41 127.96 178.83 117.87 C 191.35 100.98 207.89 87.16 226.60 77.61 C 263.02 58.72 299.50 39.93 335.87 20.95 Z" />
</g>
<g id="#9dbccfff">
<path fill="#9dbccf" opacity="1.00" d=" M 314.17 89.43 C 321.79 86.74 329.84 83.96 338.04 85.23 C 343.69 86.04 348.61 89.85 351.16 94.91 C 364.34 120.39 377.39 145.94 390.56 171.42 C 391.75 173.84 393.42 176.20 393.42 179.00 C 394.45 202.70 396.31 226.35 397.95 250.02 C 401.65 303.35 405.72 356.65 409.64 409.97 C 409.96 415.23 410.88 420.60 409.57 425.80 C 407.87 432.71 403.56 438.63 398.79 443.77 C 388.86 454.17 376.76 462.19 364.29 469.21 C 348.83 477.81 332.63 485.02 316.01 491.05 C 314.42 491.64 312.75 492.03 311.05 492.01 C 239.46 491.99 167.87 492.01 96.28 492.00 C 98.16 460.01 100.22 428.03 101.99 396.04 C 102.42 390.65 97.86 386.09 92.68 385.50 C 93.16 377.36 93.65 369.22 94.15 361.08 C 99.27 361.07 104.24 357.25 104.68 351.98 C 105.44 346.40 100.67 341.60 95.37 340.82 C 95.81 333.19 96.29 325.56 96.74 317.93 C 102.00 317.97 107.06 313.93 107.29 308.50 C 109.24 277.35 111.08 246.18 112.94 215.02 C 113.30 212.35 112.43 208.89 115.11 207.18 C 155.91 170.85 201.46 139.80 250.26 115.23 C 270.84 104.95 292.40 96.78 314.17 89.43 M 240.40 167.40 C 233.83 180.08 227.26 192.77 220.73 205.48 C 218.18 209.96 219.87 216.15 224.33 218.72 C 228.87 221.68 235.56 219.95 238.13 215.20 C 241.99 208.03 245.61 200.73 249.41 193.53 C 253.20 200.76 256.83 208.08 260.71 215.27 C 263.52 220.56 271.36 221.82 275.76 217.79 C 279.46 214.78 280.27 209.13 277.88 205.06 C 271.43 192.56 264.97 180.06 258.50 167.57 C 255.44 160.03 243.58 159.89 240.40 167.40 M 294.80 174.02 C 294.68 185.02 294.76 196.03 294.76 207.03 C 294.40 212.32 298.76 217.33 304.09 217.55 C 309.47 218.06 314.61 213.45 314.68 208.05 C 314.84 200.15 314.70 192.25 314.74 184.35 C 321.33 184.32 327.92 184.33 334.52 184.34 C 334.57 192.21 334.43 200.08 334.57 207.95 C 334.58 213.34 339.64 217.96 344.99 217.56 C 350.00 217.42 354.41 213.01 354.46 207.99 C 354.55 196.64 354.55 185.29 354.46 173.95 C 354.43 168.58 349.43 164.07 344.11 164.35 C 331.09 164.32 318.06 164.32 305.03 164.35 C 299.73 164.13 294.78 168.67 294.80 174.02 M 157.41 246.64 C 152.79 247.84 147.23 249.30 145.17 254.13 C 142.52 259.56 146.09 266.72 152.01 267.91 C 156.88 269.28 161.10 264.99 165.99 265.88 C 171.94 266.78 176.97 270.50 182.59 272.46 C 190.52 275.57 199.61 275.51 207.51 272.31 C 213.58 269.95 219.08 265.32 225.91 265.53 C 234.73 266.21 240.70 274.06 249.21 275.82 C 259.58 278.95 270.40 275.65 279.56 270.61 C 284.73 267.80 290.78 264.55 296.73 267.20 C 305.19 271.16 313.41 276.60 323.03 277.07 C 332.16 277.77 340.51 273.40 348.38 269.36 C 352.06 267.64 356.15 265.35 357.02 261.00 C 359.07 254.10 351.91 246.90 345.01 248.91 C 338.23 251.29 332.53 256.84 325.05 257.13 C 318.34 257.12 312.86 252.75 307.08 249.94 C 297.04 244.77 284.50 245.17 274.70 250.73 C 268.29 253.91 261.25 258.88 253.79 256.17 C 247.34 253.55 241.71 249.15 234.99 247.12 C 226.61 244.07 217.35 245.69 209.46 249.37 C 203.86 251.60 198.45 256.01 192.05 254.49 C 187.01 253.10 182.52 250.25 177.65 248.39 C 171.29 245.75 164.12 245.15 157.41 246.64 M 158.50 300.74 C 153.61 301.90 147.65 303.23 145.28 308.22 C 142.65 313.31 145.52 320.19 150.98 321.93 C 156.50 324.19 161.49 318.76 167.10 320.34 C 174.00 322.19 180.04 326.50 187.07 328.07 C 195.10 330.32 203.62 328.49 211.02 325.02 C 215.92 323.11 220.45 319.45 225.97 319.82 C 230.26 319.97 233.80 322.62 237.42 324.59 C 244.26 328.52 251.94 331.73 259.99 331.25 C 269.37 330.85 277.51 325.71 285.79 321.86 C 289.85 319.92 294.74 320.24 298.66 322.38 C 306.91 326.67 315.44 331.58 325.04 331.45 C 334.33 331.45 342.54 326.60 350.59 322.53 C 354.36 320.88 357.40 317.26 357.32 312.98 C 357.58 306.55 350.63 301.28 344.51 303.37 C 337.98 305.93 332.34 311.14 325.05 311.45 C 318.78 311.46 313.54 307.59 308.20 304.84 C 300.27 300.46 290.60 299.40 281.92 302.02 C 274.28 304.26 267.92 309.80 259.98 311.18 C 253.35 311.86 247.82 307.55 242.39 304.47 C 233.01 298.95 220.97 298.30 211.10 302.90 C 205.83 305.20 200.89 308.88 194.95 309.08 C 189.00 309.05 183.99 305.43 178.72 303.17 C 172.43 300.33 165.28 299.45 158.50 300.74 M 218.58 354.80 C 211.13 355.99 205.19 361.15 197.98 363.01 C 191.47 364.64 185.55 360.66 179.92 358.04 C 170.44 353.31 158.70 353.25 149.31 358.23 C 145.18 360.44 143.23 365.81 144.88 370.18 C 146.18 373.98 149.97 376.76 153.99 376.81 C 157.53 376.93 160.55 374.48 164.09 374.47 C 167.81 374.19 171.19 375.97 174.45 377.49 C 181.47 380.80 188.99 384.01 196.93 383.31 C 205.55 382.76 213.06 378.15 220.81 374.85 C 226.36 372.69 231.98 375.49 236.60 378.45 C 243.68 382.56 251.58 386.06 259.96 385.58 C 269.73 385.19 278.06 379.60 286.75 375.79 C 291.53 373.80 296.81 375.34 301.03 377.92 C 308.72 382.04 317.00 386.15 325.97 385.75 C 334.98 385.44 342.92 380.71 350.75 376.77 C 354.23 375.19 357.09 371.94 357.29 368.00 C 358.07 361.31 350.84 355.47 344.48 357.70 C 338.26 360.15 332.90 364.94 326.06 365.71 C 319.87 366.25 314.53 362.52 309.31 359.76 C 301.48 355.14 291.84 353.68 283.03 356.02 C 274.89 358.05 268.29 364.05 259.97 365.51 C 253.57 366.15 248.16 362.14 242.94 359.10 C 235.71 354.74 226.87 353.12 218.58 354.80 M 230.40 411.63 C 226.45 412.90 223.52 416.83 223.58 421.01 C 223.51 427.99 223.51 434.98 223.59 441.96 C 223.79 454.09 232.28 465.44 243.76 469.25 C 256.93 474.05 272.83 467.93 279.46 455.61 C 285.28 445.72 282.76 433.86 283.33 422.99 C 283.84 418.25 281.29 413.16 276.58 411.68 C 270.95 409.50 264.10 413.68 263.46 419.67 C 263.03 427.11 263.59 434.59 263.20 442.03 C 262.85 447.09 257.97 451.20 252.94 450.84 C 248.21 450.68 243.92 446.66 243.64 441.91 C 243.29 434.52 243.82 427.11 243.40 419.73 C 242.82 413.73 236.04 409.56 230.40 411.63 M 166.06 421.85 C 165.68 428.44 166.17 435.05 165.81 441.64 C 160.09 444.92 154.48 448.42 148.86 451.86 C 144.68 454.42 143.07 460.25 145.33 464.59 C 147.54 469.53 154.15 471.74 158.87 469.06 C 164.68 465.71 170.36 462.12 176.11 458.66 C 182.41 462.11 188.59 465.79 194.91 469.19 C 200.19 472.02 207.41 468.72 208.82 462.93 C 210.22 458.42 207.84 453.36 203.70 451.24 C 197.80 447.86 191.86 444.56 185.94 441.22 C 185.89 435.12 186.03 429.02 185.89 422.92 C 185.92 418.05 181.88 413.62 177.04 413.19 C 171.83 412.46 166.54 416.60 166.06 421.85 Z" />
<path fill="#9dbccf" opacity="1.00" d=" M 413.88 456.88 C 413.86 457.43 413.82 458.54 413.80 459.09 C 415.03 463.27 414.33 467.71 415.35 471.94 C 415.73 478.58 416.94 485.16 416.86 491.84 C 399.37 491.62 381.87 491.85 364.37 491.72 C 374.79 487.30 384.42 481.13 393.72 474.73 C 401.05 469.52 408.00 463.70 413.88 456.88 Z" />
</g>
</svg>
