<?xml version="1.0" encoding="UTF-8"?>
<svg width="173.000001px" height="199px" viewBox="0 0 173.000001 199" version="1.1" xmlns="http://www.w3.org/2000/svg" xmlns:xlink="http://www.w3.org/1999/xlink">
    <title>favicon</title>
    <g id="Page-1" stroke="none" stroke-width="1" fill="none" fill-rule="evenodd">
        <g id="favicon" transform="translate(0, 0)" fill-rule="nonzero">
            <path d="M83.5174769,0.514428138 C86.8013763,-0.799972109 90.1670126,0.684999161 93.263398,1.83886198 C100.783191,4.89409002 107.961612,8.76705563 115.096761,12.6851724 C124.717673,18.0531429 134.170303,23.7472049 143.435419,29.762342 C150.459982,34.38281 157.465314,39.0785301 163.960992,44.4866348 C165.845748,46.1923451 167.932443,47.8177866 169.177728,50.1204955 C170.533598,53.5168656 170.860546,57.2393272 171.350967,60.8564364 C172.961665,76.0322408 173.038594,91.3184147 172.990514,106.569471 C172.793384,117.024471 172.485668,127.494522 171.379816,137.899355 C171.009596,141.029835 170.615336,144.175365 169.778735,147.215543 C168.879629,150.812585 165.696699,152.949739 163.143623,155.232381 C152.48898,163.801066 140.911192,171.020234 129.318979,178.103948 C117.721958,184.976957 106.033584,191.799799 93.6480422,197.037332 C90.8209077,198.060759 87.8639557,199.490545 84.8012267,198.833344 C81.9789003,198.171128 79.2815833,197.032315 76.6179225,195.883469 C69.232755,192.577401 62.0927981,188.724503 55.0249618,184.746185 C45.5579079,179.388248 36.2543276,173.709237 27.1430692,167.714166 C20.5512302,163.289353 13.935351,158.844473 7.91567009,153.586872 C6.07418624,151.876145 3.9922998,150.120267 3.31917254,147.521567 C2.17004816,143.488064 1.76136375,139.278973 1.33825519,135.110017 C0.0785456138,121.113159 -0.0464637335,107.046066 0.0112328883,93.0040577 C0.213171065,82.2079152 0.506462225,71.3967223 1.67962687,60.6607814 C2.09792738,57.34468 2.49218763,53.9834275 3.54995903,50.8077963 C4.51156939,48.2090966 6.77135375,46.51342 8.70419059,44.7324578 C15.8008751,38.7524384 23.5226063,33.6453412 31.2539536,28.6185128 C44.557833,20.1250791 58.1453875,12.0731234 72.2666357,5.15496336 C75.9303711,3.39908517 79.637379,1.69337492 83.5174769,0.514428138 Z" id="Hexagon" fill="#ABACB0"></path>
            <polygon id="Path" fill="#877EAF" points="52.5302361 102.744361 52.1694436 102.744361 46.0359719 69 29.9807076 69 16 129 30.6120944 129 37.8279435 98.1428571 38.0985379 98.1428571 43.3300285 122.954887 54.2440002 122.954887 68.314906 97.6917293 68.6756984 97.6917293 64.8873776 129 79.4994721 129 86.9859155 69 70.9306513 69"></polygon>
            <polygon id="Path" fill="#FFFFFF" points="103.1653 106.420719 84.1182909 114.996486 87.5424723 123.929577 115.791969 110.637138 117.076037 103.633594 92.6787445 90.1267606 87.6138094 98.202275"></polygon>
            <polygon id="Path" fill="#FFFFFF" points="128.517413 106.420719 109.470404 114.996486 112.894585 123.929577 141.144082 110.637138 142.42815 103.633594 118.030857 90.1267606 112.965922 98.202275"></polygon>
            <polygon id="Path" fill="#FFFFFF" points="135.09512 129 157.20452 129 157.912021 124.774648 135.80262 124.774648"></polygon>
        </g>
    </g>
</svg>